<svg width="35" height="18" viewBox="0 0 35 18" fill="none" xmlns="http://www.w3.org/2000/svg">
<path d="M11.816 17.916L0 16.656H12.096L11.816 17.916ZM12.432 15.2L0.644 13.94H12.74L12.432 15.2ZM13.076 12.512L1.288 11.252H13.356L13.076 12.512ZM13.692 9.824L1.932 8.564H14L13.692 9.824ZM14.336 7.136L2.576 5.876H14.616L14.336 7.136ZM14.952 4.448L3.22 3.188H15.26L14.952 4.448ZM15.596 1.76L3.864 0.5H15.876L15.596 1.76ZM18.2 18H12.656L16.744 0.5H23.688L24.192 9.404H24.388L28.028 0.5H34.972L32.9 18H27.328L28.504 9.516H28.308L24.808 18H20.748L20.16 9.516H20.02L18.2 18Z" fill="url(#paint0_linear_627_3856)"/>
<defs>
<linearGradient id="paint0_linear_627_3856" x1="8.72619" y1="7.5" x2="33.2381" y2="7.5" gradientUnits="userSpaceOnUse">
<stop stop-color="#FF650A"/>
<stop offset="1" stop-color="#FFAA00"/>
</linearGradient>
</defs>
</svg>
