<svg width="787" height="573" viewBox="0 0 787 573" fill="none" xmlns="http://www.w3.org/2000/svg">
<g clip-path="url(#clip0_499_3843)">
<path d="M458.322 100.882C473.068 100.882 485.023 88.9281 485.023 74.1817C485.023 59.4353 473.068 47.481 458.322 47.481C443.575 47.481 431.621 59.4353 431.621 74.1817C431.621 88.9281 443.575 100.882 458.322 100.882Z" fill="#03D9A4"/>
<path d="M665.446 497.152C705.133 466.923 724.089 416.127 712.222 367.67C711.927 366.466 711.616 365.264 711.288 364.066C703.421 335.302 683.957 307.965 655.588 298.775C631.769 291.058 605.769 296.992 580.919 293.923C532.138 287.899 494.318 248.429 467.708 207.104C441.097 165.778 420.646 119.52 385.286 85.3796C327.001 29.1043 231.924 16.9881 159.659 53.6192C87.3948 90.2504 41.3629 171.52 43.326 252.514C45.2893 333.509 93.3723 410.946 163.201 452.031C188.853 467.124 218.522 477.817 248.049 474.075C273.669 470.829 296.948 457.063 322.448 452.976C362.539 446.55 402.375 464.676 437.051 485.799C471.726 506.922 505.221 531.959 544.625 541.752C582.886 551.26 630.289 523.93 665.446 497.152Z" fill="#03D9A4"/>
<path d="M608.425 55.32C607.555 54.74 606.675 54.19 605.805 53.63C580.656 37.5458 553.701 24.4791 525.495 14.7L518.955 104.92H477.495V1.53C474.885 0.989999 472.255 0.48 469.625 0V104.92H420.355C393.231 104.92 367.219 94.1452 348.039 74.9659C328.86 55.7865 318.085 29.7738 318.085 2.65012C315.445 3.22012 312.825 3.83003 310.205 4.48003V104.92H270.075L263.845 18.89C234.86 30.0063 207.342 44.6248 181.905 62.42C181.465 62.72 181.025 63.03 180.595 63.33C178.385 64.88 176.205 66.46 174.035 68.06V412.25H292.305L290.215 383.3L278.715 224.35H510.305L498.805 383.3L496.715 412.25H613.675V58.8C611.935 57.62 610.185 56.46 608.425 55.32ZM310.205 198.1H276.815L270.645 112.8H310.205V198.1ZM469.625 198.1H413.545V196.41C413.545 195.598 413.385 194.793 413.074 194.043C412.763 193.292 412.307 192.61 411.732 192.036C411.157 191.462 410.474 191.007 409.723 190.697C408.972 190.388 408.168 190.229 407.355 190.23H382.975C382.164 190.23 381.36 190.389 380.61 190.7C379.86 191.01 379.179 191.465 378.605 192.039C378.031 192.613 377.575 193.295 377.265 194.045C376.955 194.795 376.795 195.598 376.795 196.41V198.1H318.085V112.8H469.625V198.1ZM477.495 198.1V112.8H518.385L512.215 198.1H477.495Z" fill="#626175"/>
<path d="M0 434.291C8.68725 444.584 18.0835 454.258 28.12 463.241L758.7 464.241C768.736 455.258 778.133 445.584 786.82 435.291L0 434.291Z" fill="#747286"/>
<path d="M495.43 341.591V427.295C495.431 428.387 495.865 429.435 496.637 430.207C497.409 430.979 498.457 431.414 499.549 431.414H626.553C627.645 431.414 628.693 430.979 629.465 430.207C630.237 429.435 630.671 428.387 630.672 427.295V341.591C630.67 340.5 630.235 339.454 629.463 338.683C628.691 337.912 627.644 337.478 626.553 337.477H499.549C498.457 337.478 497.411 337.912 496.639 338.683C495.867 339.454 495.432 340.5 495.43 341.591Z" fill="#3F3D56"/>
<path d="M498.41 342.658V426.238C498.411 426.822 498.643 427.381 499.056 427.794C499.469 428.206 500.028 428.438 500.612 428.439H625.497C626.081 428.438 626.64 428.206 627.053 427.794C627.465 427.381 627.697 426.822 627.698 426.238V342.658C627.698 342.073 627.467 341.513 627.054 341.099C626.641 340.686 626.081 340.453 625.497 340.452H500.612C500.027 340.453 499.467 340.686 499.055 341.099C498.642 341.513 498.41 342.073 498.41 342.658Z" fill="#6C63FF"/>
<path d="M492.774 444.01C493.006 444.301 493.302 444.537 493.639 444.698C493.975 444.859 494.344 444.942 494.717 444.94H630.709C631.081 444.939 631.448 444.856 631.784 444.696C632.119 444.535 632.415 444.302 632.649 444.014C632.884 443.725 633.051 443.387 633.138 443.026C633.226 442.664 633.231 442.288 633.155 441.924L631.044 431.897C630.957 431.488 630.768 431.107 630.496 430.79C630.224 430.472 629.877 430.228 629.486 430.079C629.203 429.968 628.902 429.911 628.598 429.911H496.82C496.516 429.911 496.215 429.968 495.932 430.079C495.541 430.228 495.194 430.472 494.922 430.79C494.649 431.107 494.461 431.488 494.374 431.897L492.263 441.924C492.187 442.288 492.194 442.664 492.283 443.025C492.371 443.385 492.539 443.722 492.774 444.01Z" fill="#2F2E41"/>
<path d="M623.933 434.23H627.145C627.414 434.23 627.633 434.012 627.633 433.742V432.206C627.633 431.936 627.414 431.717 627.145 431.717H623.933C623.663 431.717 623.444 431.936 623.444 432.206V433.742C623.444 434.012 623.663 434.23 623.933 434.23Z" fill="#3F3D56"/>
<path d="M615.554 434.23H618.766C619.035 434.23 619.254 434.012 619.254 433.742V432.206C619.254 431.936 619.035 431.717 618.766 431.717H615.554C615.284 431.717 615.065 431.936 615.065 432.206V433.742C615.065 434.012 615.284 434.23 615.554 434.23Z" fill="#3F3D56"/>
<path d="M607.179 434.23H610.391C610.66 434.23 610.879 434.012 610.879 433.742V432.206C610.879 431.936 610.66 431.717 610.391 431.717H607.179C606.909 431.717 606.69 431.936 606.69 432.206V433.742C606.69 434.012 606.909 434.23 607.179 434.23Z" fill="#3F3D56"/>
<path d="M598.8 434.23H602.012C602.281 434.23 602.5 434.012 602.5 433.742V432.206C602.5 431.936 602.281 431.717 602.012 431.717H598.8C598.53 431.717 598.312 431.936 598.312 432.206V433.742C598.312 434.012 598.53 434.23 598.8 434.23Z" fill="#3F3D56"/>
<path d="M590.425 434.23H593.637C593.906 434.23 594.125 434.012 594.125 433.742V432.206C594.125 431.936 593.906 431.717 593.637 431.717H590.425C590.155 431.717 589.937 431.936 589.937 432.206V433.742C589.937 434.012 590.155 434.23 590.425 434.23Z" fill="#3F3D56"/>
<path d="M582.046 434.23H585.258C585.527 434.23 585.746 434.012 585.746 433.742V432.206C585.746 431.936 585.527 431.717 585.258 431.717H582.046C581.776 431.717 581.558 431.936 581.558 432.206V433.742C581.558 434.012 581.776 434.23 582.046 434.23Z" fill="#3F3D56"/>
<path d="M573.671 434.23H576.883C577.153 434.23 577.371 434.012 577.371 433.742V432.206C577.371 431.936 577.153 431.717 576.883 431.717H573.671C573.401 431.717 573.183 431.936 573.183 432.206V433.742C573.183 434.012 573.401 434.23 573.671 434.23Z" fill="#3F3D56"/>
<path d="M565.292 434.23H568.504C568.774 434.23 568.992 434.012 568.992 433.742V432.206C568.992 431.936 568.774 431.717 568.504 431.717H565.292C565.022 431.717 564.804 431.936 564.804 432.206V433.742C564.804 434.012 565.022 434.23 565.292 434.23Z" fill="#3F3D56"/>
<path d="M556.917 434.23H560.129C560.399 434.23 560.617 434.012 560.617 433.742V432.206C560.617 431.936 560.399 431.717 560.129 431.717H556.917C556.647 431.717 556.429 431.936 556.429 432.206V433.742C556.429 434.012 556.647 434.23 556.917 434.23Z" fill="#3F3D56"/>
<path d="M548.538 434.23H551.75C552.02 434.23 552.238 434.012 552.238 433.742V432.206C552.238 431.936 552.02 431.717 551.75 431.717H548.538C548.268 431.717 548.05 431.936 548.05 432.206V433.742C548.05 434.012 548.268 434.23 548.538 434.23Z" fill="#3F3D56"/>
<path d="M540.163 434.23H543.375C543.645 434.23 543.863 434.012 543.863 433.742V432.206C543.863 431.936 543.645 431.717 543.375 431.717H540.163C539.893 431.717 539.675 431.936 539.675 432.206V433.742C539.675 434.012 539.893 434.23 540.163 434.23Z" fill="#3F3D56"/>
<path d="M531.784 434.23H534.996C535.266 434.23 535.484 434.012 535.484 433.742V432.206C535.484 431.936 535.266 431.717 534.996 431.717H531.784C531.514 431.717 531.296 431.936 531.296 432.206V433.742C531.296 434.012 531.514 434.23 531.784 434.23Z" fill="#3F3D56"/>
<path d="M523.409 434.23H526.621C526.891 434.23 527.109 434.012 527.109 433.742V432.206C527.109 431.936 526.891 431.717 526.621 431.717H523.409C523.139 431.717 522.921 431.936 522.921 432.206V433.742C522.921 434.012 523.139 434.23 523.409 434.23Z" fill="#3F3D56"/>
<path d="M515.03 434.23H518.242C518.512 434.23 518.73 434.012 518.73 433.742V432.206C518.73 431.936 518.512 431.717 518.242 431.717H515.03C514.761 431.717 514.542 431.936 514.542 432.206V433.742C514.542 434.012 514.761 434.23 515.03 434.23Z" fill="#3F3D56"/>
<path d="M506.655 434.23H509.867C510.137 434.23 510.355 434.012 510.355 433.742V432.206C510.355 431.936 510.137 431.717 509.867 431.717H506.655C506.386 431.717 506.167 431.936 506.167 432.206V433.742C506.167 434.012 506.386 434.23 506.655 434.23Z" fill="#3F3D56"/>
<path d="M498.276 434.23H501.488C501.758 434.23 501.977 434.012 501.977 433.742V432.206C501.977 431.936 501.758 431.717 501.488 431.717H498.276C498.007 431.717 497.788 431.936 497.788 432.206V433.742C497.788 434.012 498.007 434.23 498.276 434.23Z" fill="#3F3D56"/>
<path d="M624.03 438.419H627.242C627.512 438.419 627.73 438.2 627.73 437.931V436.394C627.73 436.124 627.512 435.906 627.242 435.906H624.03C623.761 435.906 623.542 436.124 623.542 436.394V437.931C623.542 438.2 623.761 438.419 624.03 438.419Z" fill="#3F3D56"/>
<path d="M615.655 438.419H618.867C619.137 438.419 619.355 438.2 619.355 437.931V436.394C619.355 436.124 619.137 435.906 618.867 435.906H615.655C615.386 435.906 615.167 436.124 615.167 436.394V437.931C615.167 438.2 615.386 438.419 615.655 438.419Z" fill="#3F3D56"/>
<path d="M607.276 438.419H610.488C610.758 438.419 610.977 438.2 610.977 437.931V436.394C610.977 436.124 610.758 435.906 610.488 435.906H607.276C607.007 435.906 606.788 436.124 606.788 436.394V437.931C606.788 438.2 607.007 438.419 607.276 438.419Z" fill="#3F3D56"/>
<path d="M598.901 438.419H602.113C602.383 438.419 602.602 438.2 602.602 437.931V436.394C602.602 436.124 602.383 435.906 602.113 435.906H598.901C598.632 435.906 598.413 436.124 598.413 436.394V437.931C598.413 438.2 598.632 438.419 598.901 438.419Z" fill="#3F3D56"/>
<path d="M590.522 438.419H593.734C594.004 438.419 594.223 438.2 594.223 437.931V436.394C594.223 436.124 594.004 435.906 593.734 435.906H590.522C590.253 435.906 590.034 436.124 590.034 436.394V437.931C590.034 438.2 590.253 438.419 590.522 438.419Z" fill="#3F3D56"/>
<path d="M582.147 438.419H585.359C585.629 438.419 585.848 438.2 585.848 437.931V436.394C585.848 436.124 585.629 435.906 585.359 435.906H582.147C581.878 435.906 581.659 436.124 581.659 436.394V437.931C581.659 438.2 581.878 438.419 582.147 438.419Z" fill="#3F3D56"/>
<path d="M573.768 438.419H576.981C577.25 438.419 577.469 438.2 577.469 437.931V436.394C577.469 436.124 577.25 435.906 576.981 435.906H573.768C573.499 435.906 573.28 436.124 573.28 436.394V437.931C573.28 438.2 573.499 438.419 573.768 438.419Z" fill="#3F3D56"/>
<path d="M565.393 438.419H568.606C568.875 438.419 569.094 438.2 569.094 437.931V436.394C569.094 436.124 568.875 435.906 568.606 435.906H565.393C565.124 435.906 564.905 436.124 564.905 436.394V437.931C564.905 438.2 565.124 438.419 565.393 438.419Z" fill="#3F3D56"/>
<path d="M557.015 438.419H560.227C560.496 438.419 560.715 438.2 560.715 437.931V436.394C560.715 436.124 560.496 435.906 560.227 435.906H557.015C556.745 435.906 556.526 436.124 556.526 436.394V437.931C556.526 438.2 556.745 438.419 557.015 438.419Z" fill="#3F3D56"/>
<path d="M548.64 438.419H551.852C552.121 438.419 552.34 438.2 552.34 437.931V436.394C552.34 436.124 552.121 435.906 551.852 435.906H548.64C548.37 435.906 548.151 436.124 548.151 436.394V437.931C548.151 438.2 548.37 438.419 548.64 438.419Z" fill="#3F3D56"/>
<path d="M540.261 438.419H543.473C543.742 438.419 543.961 438.2 543.961 437.931V436.394C543.961 436.124 543.742 435.906 543.473 435.906H540.261C539.991 435.906 539.772 436.124 539.772 436.394V437.931C539.772 438.2 539.991 438.419 540.261 438.419Z" fill="#3F3D56"/>
<path d="M531.886 438.419H535.098C535.367 438.419 535.586 438.2 535.586 437.931V436.394C535.586 436.124 535.367 435.906 535.098 435.906H531.886C531.616 435.906 531.397 436.124 531.397 436.394V437.931C531.397 438.2 531.616 438.419 531.886 438.419Z" fill="#3F3D56"/>
<path d="M523.507 438.419H526.719C526.988 438.419 527.207 438.2 527.207 437.931V436.394C527.207 436.124 526.988 435.906 526.719 435.906H523.507C523.237 435.906 523.019 436.124 523.019 436.394V437.931C523.019 438.2 523.237 438.419 523.507 438.419Z" fill="#3F3D56"/>
<path d="M515.132 438.419H518.344C518.613 438.419 518.832 438.2 518.832 437.931V436.394C518.832 436.124 518.613 435.906 518.344 435.906H515.132C514.862 435.906 514.644 436.124 514.644 436.394V437.931C514.644 438.2 514.862 438.419 515.132 438.419Z" fill="#3F3D56"/>
<path d="M506.753 438.419H509.965C510.235 438.419 510.453 438.2 510.453 437.931V436.394C510.453 436.124 510.235 435.906 509.965 435.906H506.753C506.483 435.906 506.265 436.124 506.265 436.394V437.931C506.265 438.2 506.483 438.419 506.753 438.419Z" fill="#3F3D56"/>
<path d="M498.378 438.419H501.59C501.86 438.419 502.078 438.2 502.078 437.931V436.394C502.078 436.124 501.86 435.906 501.59 435.906H498.378C498.108 435.906 497.89 436.124 497.89 436.394V437.931C497.89 438.2 498.108 438.419 498.378 438.419Z" fill="#3F3D56"/>
<path d="M554.504 443.445H587.035C587.305 443.445 587.523 443.226 587.523 442.957V441.42C587.523 441.151 587.305 440.932 587.035 440.932H554.504C554.234 440.932 554.016 441.151 554.016 441.42V442.957C554.016 443.226 554.234 443.445 554.504 443.445Z" fill="#3F3D56"/>
<path d="M520.038 358.737H517.194C516.332 358.737 515.633 359.436 515.633 360.298C515.633 361.16 516.332 361.859 517.194 361.859H520.038C520.9 361.859 521.599 361.16 521.599 360.298C521.599 359.436 520.9 358.737 520.038 358.737Z" fill="white"/>
<path d="M552.557 358.737H549.713C548.851 358.737 548.152 359.436 548.152 360.298C548.152 361.16 548.851 361.859 549.713 361.859H552.557C553.419 361.859 554.118 361.16 554.118 360.298C554.118 359.436 553.419 358.737 552.557 358.737Z" fill="white"/>
<path d="M561.772 358.737H558.928C558.066 358.737 557.367 359.436 557.367 360.298C557.367 361.16 558.066 361.859 558.928 361.859H561.772C562.634 361.859 563.333 361.16 563.333 360.298C563.333 359.436 562.634 358.737 561.772 358.737Z" fill="white"/>
<path d="M543.712 358.477H526.038C525.175 358.477 524.477 359.176 524.477 360.038C524.477 360.9 525.175 361.599 526.038 361.599H543.712C544.574 361.599 545.273 360.9 545.273 360.038C545.273 359.176 544.574 358.477 543.712 358.477Z" fill="white"/>
<path d="M587.075 358.477H569.401C568.539 358.477 567.84 359.176 567.84 360.038C567.84 360.9 568.539 361.599 569.401 361.599H587.075C587.937 361.599 588.636 360.9 588.636 360.038C588.636 359.176 587.937 358.477 587.075 358.477Z" fill="white"/>
<path d="M528.709 365.784H525.866C525.004 365.784 524.305 366.483 524.305 367.345C524.305 368.207 525.004 368.906 525.866 368.906H528.709C529.572 368.906 530.271 368.207 530.271 367.345C530.271 366.483 529.572 365.784 528.709 365.784Z" fill="white"/>
<path d="M561.233 365.784H558.389C557.527 365.784 556.828 366.483 556.828 367.345C556.828 368.207 557.527 368.906 558.389 368.906H561.233C562.095 368.906 562.794 368.207 562.794 367.345C562.794 366.483 562.095 365.784 561.233 365.784Z" fill="white"/>
<path d="M570.448 365.784H567.604C566.742 365.784 566.043 366.483 566.043 367.345C566.043 368.207 566.742 368.906 567.604 368.906H570.448C571.31 368.906 572.009 368.207 572.009 367.345C572.009 366.483 571.31 365.784 570.448 365.784Z" fill="white"/>
<path d="M552.383 365.523H534.71C533.847 365.523 533.148 366.222 533.148 367.085C533.148 367.947 533.847 368.646 534.71 368.646H552.383C553.246 368.646 553.945 367.947 553.945 367.085C553.945 366.222 553.246 365.523 552.383 365.523Z" fill="white"/>
<path d="M595.751 365.523H578.077C577.215 365.523 576.516 366.222 576.516 367.085C576.516 367.947 577.215 368.646 578.077 368.646H595.751C596.613 368.646 597.312 367.947 597.312 367.085C597.312 366.222 596.613 365.523 595.751 365.523Z" fill="white"/>
<path d="M537.381 372.83H534.538C533.675 372.83 532.977 373.529 532.977 374.391C532.977 375.254 533.675 375.952 534.538 375.952H537.381C538.243 375.952 538.942 375.254 538.942 374.391C538.942 373.529 538.243 372.83 537.381 372.83Z" fill="white"/>
<path d="M569.905 372.83H567.061C566.199 372.83 565.5 373.529 565.5 374.391C565.5 375.254 566.199 375.952 567.061 375.952H569.905C570.767 375.952 571.466 375.254 571.466 374.391C571.466 373.529 570.767 372.83 569.905 372.83Z" fill="white"/>
<path d="M579.12 372.83H576.276C575.414 372.83 574.715 373.529 574.715 374.391C574.715 375.254 575.414 375.952 576.276 375.952H579.12C579.982 375.952 580.681 375.254 580.681 374.391C580.681 373.529 579.982 372.83 579.12 372.83Z" fill="white"/>
<path d="M561.059 372.57H543.385C542.523 372.57 541.824 373.269 541.824 374.131C541.824 374.993 542.523 375.692 543.385 375.692H561.059C561.921 375.692 562.62 374.993 562.62 374.131C562.62 373.269 561.921 372.57 561.059 372.57Z" fill="white"/>
<path d="M604.423 372.57H586.749C585.886 372.57 585.188 373.269 585.188 374.131C585.188 374.993 585.886 375.692 586.749 375.692H604.423C605.285 375.692 605.984 374.993 605.984 374.131C605.984 373.269 605.285 372.57 604.423 372.57Z" fill="white"/>
<path d="M546.053 379.877H543.21C542.347 379.877 541.648 380.576 541.648 381.438C541.648 382.3 542.347 382.999 543.21 382.999H546.053C546.915 382.999 547.614 382.3 547.614 381.438C547.614 380.576 546.915 379.877 546.053 379.877Z" fill="white"/>
<path d="M578.577 379.877H575.733C574.871 379.877 574.172 380.576 574.172 381.438C574.172 382.3 574.871 382.999 575.733 382.999H578.577C579.439 382.999 580.138 382.3 580.138 381.438C580.138 380.576 579.439 379.877 578.577 379.877Z" fill="white"/>
<path d="M587.792 379.877H584.948C584.086 379.877 583.387 380.576 583.387 381.438C583.387 382.3 584.086 382.999 584.948 382.999H587.792C588.654 382.999 589.353 382.3 589.353 381.438C589.353 380.576 588.654 379.877 587.792 379.877Z" fill="white"/>
<path d="M569.731 379.617H552.057C551.195 379.617 550.496 380.316 550.496 381.178C550.496 382.04 551.195 382.739 552.057 382.739H569.731C570.593 382.739 571.292 382.04 571.292 381.178C571.292 380.316 570.593 379.617 569.731 379.617Z" fill="white"/>
<path d="M552.557 407.897H549.713C548.851 407.897 548.152 408.596 548.152 409.459C548.152 410.321 548.851 411.02 549.713 411.02H552.557C553.419 411.02 554.118 410.321 554.118 409.459C554.118 408.596 553.419 407.897 552.557 407.897Z" fill="white"/>
<path d="M561.772 407.897H558.928C558.066 407.897 557.367 408.596 557.367 409.459C557.367 410.321 558.066 411.02 558.928 411.02H561.772C562.634 411.02 563.333 410.321 563.333 409.459C563.333 408.596 562.634 407.897 561.772 407.897Z" fill="white"/>
<path d="M587.075 408.158H569.401C568.539 408.158 567.84 408.857 567.84 409.719C567.84 410.581 568.539 411.28 569.401 411.28H587.075C587.937 411.28 588.636 410.581 588.636 409.719C588.636 408.857 587.937 408.158 587.075 408.158Z" fill="white"/>
<path d="M520.038 407.897H517.194C516.332 407.897 515.633 408.596 515.633 409.459C515.633 410.321 516.332 411.02 517.194 411.02H520.038C520.9 411.02 521.599 410.321 521.599 409.459C521.599 408.596 520.9 407.897 520.038 407.897Z" fill="white"/>
<path d="M543.712 408.158H526.038C525.175 408.158 524.477 408.857 524.477 409.719C524.477 410.581 525.175 411.28 526.038 411.28H543.712C544.574 411.28 545.273 410.581 545.273 409.719C545.273 408.857 544.574 408.158 543.712 408.158Z" fill="white"/>
<path d="M528.709 400.851H525.866C525.004 400.851 524.305 401.55 524.305 402.412C524.305 403.274 525.004 403.973 525.866 403.973H528.709C529.572 403.973 530.271 403.274 530.271 402.412C530.271 401.55 529.572 400.851 528.709 400.851Z" fill="white"/>
<path d="M561.233 400.851H558.389C557.527 400.851 556.828 401.55 556.828 402.412C556.828 403.274 557.527 403.973 558.389 403.973H561.233C562.095 403.973 562.794 403.274 562.794 402.412C562.794 401.55 562.095 400.851 561.233 400.851Z" fill="white"/>
<path d="M570.448 400.851H567.604C566.742 400.851 566.043 401.55 566.043 402.412C566.043 403.274 566.742 403.973 567.604 403.973H570.448C571.31 403.973 572.009 403.274 572.009 402.412C572.009 401.55 571.31 400.851 570.448 400.851Z" fill="white"/>
<path d="M552.383 401.111H534.71C533.847 401.111 533.148 401.81 533.148 402.672C533.148 403.534 533.847 404.233 534.71 404.233H552.383C553.246 404.233 553.945 403.534 553.945 402.672C553.945 401.81 553.246 401.111 552.383 401.111Z" fill="white"/>
<path d="M537.381 393.804H534.538C533.675 393.804 532.977 394.503 532.977 395.365C532.977 396.227 533.675 396.926 534.538 396.926H537.381C538.243 396.926 538.942 396.227 538.942 395.365C538.942 394.503 538.243 393.804 537.381 393.804Z" fill="white"/>
<path d="M569.905 393.804H567.061C566.199 393.804 565.5 394.503 565.5 395.365C565.5 396.227 566.199 396.926 567.061 396.926H569.905C570.767 396.926 571.466 396.227 571.466 395.365C571.466 394.503 570.767 393.804 569.905 393.804Z" fill="white"/>
<path d="M579.12 393.804H576.276C575.414 393.804 574.715 394.503 574.715 395.365C574.715 396.227 575.414 396.926 576.276 396.926H579.12C579.982 396.926 580.681 396.227 580.681 395.365C580.681 394.503 579.982 393.804 579.12 393.804Z" fill="white"/>
<path d="M561.059 394.064H543.385C542.523 394.064 541.824 394.763 541.824 395.626C541.824 396.488 542.523 397.187 543.385 397.187H561.059C561.921 397.187 562.62 396.488 562.62 395.626C562.62 394.763 561.921 394.064 561.059 394.064Z" fill="white"/>
<path d="M546.053 386.758H543.21C542.347 386.758 541.648 387.457 541.648 388.319C541.648 389.181 542.347 389.88 543.21 389.88H546.053C546.915 389.88 547.614 389.181 547.614 388.319C547.614 387.457 546.915 386.758 546.053 386.758Z" fill="white"/>
<path d="M578.577 386.758H575.733C574.871 386.758 574.172 387.457 574.172 388.319C574.172 389.181 574.871 389.88 575.733 389.88H578.577C579.439 389.88 580.138 389.181 580.138 388.319C580.138 387.457 579.439 386.758 578.577 386.758Z" fill="white"/>
<path d="M587.792 386.758H584.948C584.086 386.758 583.387 387.457 583.387 388.319C583.387 389.181 584.086 389.88 584.948 389.88H587.792C588.654 389.88 589.353 389.181 589.353 388.319C589.353 387.457 588.654 386.758 587.792 386.758Z" fill="white"/>
<path d="M569.731 387.018H552.057C551.195 387.018 550.496 387.717 550.496 388.579C550.496 389.441 551.195 390.14 552.057 390.14H569.731C570.593 390.14 571.292 389.441 571.292 388.579C571.292 387.717 570.593 387.018 569.731 387.018Z" fill="white"/>
<path d="M504.916 490.482L491.566 469.38L533.468 435.977L550.764 416.816C553.011 414.327 555.872 412.471 559.061 411.433C562.25 410.396 565.655 410.214 568.937 410.905C572.218 411.596 575.261 413.136 577.761 415.372C580.26 417.607 582.13 420.46 583.182 423.644C584.741 428.363 584.405 433.502 582.247 437.979C580.088 442.455 576.275 445.917 571.612 447.635L544.263 457.71L504.916 490.482Z" fill="#FFB6B6"/>
<path d="M191.691 337.481V440.041H263.541V337.481C263.543 336.743 263.307 336.024 262.87 335.43C262.432 334.837 261.816 334.398 261.111 334.181C260.779 334.071 260.431 334.017 260.081 334.021H195.161C194.706 334.02 194.255 334.109 193.835 334.282C193.414 334.456 193.032 334.71 192.709 335.032C192.387 335.353 192.131 335.735 191.957 336.155C191.782 336.575 191.692 337.026 191.691 337.481ZM219.731 372.721C219.75 370.699 220.567 368.766 222.003 367.343C223.439 365.92 225.379 365.121 227.401 365.121C229.423 365.121 231.364 365.92 232.8 367.343C234.236 368.766 235.053 370.699 235.071 372.721V384.621C235.061 386.648 234.248 388.589 232.811 390.019C231.374 391.449 229.429 392.252 227.401 392.252C225.374 392.252 223.429 391.449 221.992 390.019C220.554 388.589 219.742 386.648 219.731 384.621V372.721Z" fill="#2F2E41"/>
<path d="M191.469 436.761V446.651C191.47 447.163 191.674 447.654 192.035 448.017C192.397 448.381 192.886 448.587 193.399 448.591H261.829C262.342 448.588 262.832 448.383 263.194 448.019C263.556 447.656 263.759 447.164 263.759 446.651V436.761H191.469Z" fill="#3F3D56"/>
<path d="M78.6602 182.961V370.221C78.662 372.607 79.6109 374.895 81.2983 376.583C82.9857 378.27 85.2738 379.219 87.6602 379.221H365.16C367.547 379.219 369.835 378.27 371.522 376.583C373.209 374.895 374.158 372.607 374.16 370.221V182.961C374.154 180.577 373.204 178.292 371.517 176.607C369.83 174.922 367.544 173.974 365.16 173.971H87.6602C85.2759 173.974 82.99 174.922 81.3031 176.607C79.6162 178.292 78.6658 180.577 78.6602 182.961Z" fill="#3F3D56"/>
<path d="M85.1719 185.291V367.911C85.1741 369.186 85.6815 370.408 86.5831 371.309C87.4847 372.211 88.7069 372.719 89.9819 372.721H362.852C364.127 372.719 365.349 372.211 366.251 371.309C367.152 370.408 367.66 369.186 367.662 367.911V185.291C367.662 184.014 367.155 182.79 366.254 181.886C365.352 180.983 364.128 180.473 362.852 180.471H89.9819C88.7053 180.473 87.482 180.983 86.5802 181.886C85.6785 182.79 85.172 184.014 85.1719 185.291Z" fill="white"/>
<path d="M135.808 447.921C136.086 448.269 136.439 448.55 136.841 448.742C137.243 448.934 137.683 449.033 138.128 449.031H300.468C300.912 449.03 301.351 448.931 301.751 448.74C302.152 448.548 302.505 448.27 302.785 447.925C303.064 447.581 303.264 447.178 303.368 446.746C303.473 446.315 303.479 445.865 303.388 445.431L300.868 433.461C300.764 432.973 300.539 432.518 300.214 432.139C299.889 431.76 299.475 431.469 299.008 431.291C298.671 431.158 298.311 431.09 297.948 431.091H140.638C140.276 431.09 139.916 431.158 139.578 431.291C139.112 431.469 138.697 431.76 138.373 432.139C138.048 432.518 137.823 432.973 137.718 433.461L135.198 445.431C135.109 445.865 135.117 446.314 135.222 446.745C135.328 447.175 135.528 447.577 135.808 447.921Z" fill="#2F2E41"/>
<path d="M353.996 205.628H98.6727C98.4073 205.622 98.1548 205.512 97.9692 205.322C97.7836 205.133 97.6797 204.878 97.6797 204.612C97.6797 204.347 97.7836 204.092 97.9692 203.902C98.1548 203.712 98.4073 203.603 98.6727 203.597H353.996C354.262 203.603 354.514 203.712 354.7 203.902C354.885 204.092 354.989 204.347 354.989 204.612C354.989 204.878 354.885 205.133 354.7 205.322C354.514 205.512 354.262 205.622 353.996 205.628Z" fill="#3F3D56"/>
<path d="M116.052 198.413C119.338 198.413 122.002 195.689 122.002 192.33C122.002 188.97 119.338 186.247 116.052 186.247C112.766 186.247 110.102 188.97 110.102 192.33C110.102 195.689 112.766 198.413 116.052 198.413Z" fill="#3F3D56"/>
<path d="M136.607 198.413C139.893 198.413 142.557 195.689 142.557 192.33C142.557 188.97 139.893 186.247 136.607 186.247C133.32 186.247 130.656 188.97 130.656 192.33C130.656 195.689 133.32 198.413 136.607 198.413Z" fill="#3F3D56"/>
<path d="M157.165 198.413C160.452 198.413 163.116 195.689 163.116 192.33C163.116 188.97 160.452 186.247 157.165 186.247C153.879 186.247 151.215 188.97 151.215 192.33C151.215 195.689 153.879 198.413 157.165 198.413Z" fill="#3F3D56"/>
<path d="M341.617 187.751H327.017C326.728 187.758 326.454 187.877 326.252 188.084C326.05 188.29 325.938 188.567 325.938 188.856C325.938 189.145 326.05 189.422 326.252 189.628C326.454 189.835 326.728 189.954 327.017 189.961H341.617C341.907 189.957 342.185 189.839 342.388 189.632C342.592 189.425 342.707 189.146 342.707 188.856C342.707 188.566 342.592 188.287 342.388 188.08C342.185 187.873 341.907 187.755 341.617 187.751Z" fill="#3F3D56"/>
<path d="M341.614 191.901H327.014C326.726 191.907 326.451 192.027 326.249 192.233C326.047 192.44 325.934 192.717 325.934 193.006C325.934 193.295 326.047 193.572 326.249 193.779C326.451 193.985 326.726 194.104 327.014 194.111H341.614C341.905 194.107 342.183 193.989 342.387 193.783C342.592 193.576 342.706 193.297 342.706 193.006C342.706 192.715 342.592 192.436 342.387 192.229C342.183 192.022 341.905 191.904 341.614 191.901Z" fill="#3F3D56"/>
<path d="M341.617 196.051H327.017C326.728 196.058 326.454 196.177 326.252 196.383C326.05 196.59 325.938 196.867 325.938 197.156C325.938 197.444 326.05 197.722 326.252 197.928C326.454 198.135 326.728 198.254 327.017 198.261H341.617C341.907 198.257 342.185 198.138 342.388 197.932C342.592 197.725 342.707 197.446 342.707 197.156C342.707 196.865 342.592 196.587 342.388 196.38C342.185 196.173 341.907 196.055 341.617 196.051Z" fill="#3F3D56"/>
<path d="M693.594 441.101C694.035 442.384 694.87 443.494 695.981 444.272C697.092 445.05 698.421 445.457 699.777 445.432L726.269 444.75C727.635 444.724 728.956 444.256 730.034 443.416C731.112 442.577 731.889 441.411 732.25 440.093L735.999 400.006C737.329 400.609 738.777 400.906 740.237 400.877C741.505 400.845 742.755 400.564 743.914 400.049C745.074 399.534 746.121 398.796 746.995 397.877C747.869 396.957 748.554 395.875 749.01 394.691C749.466 393.507 749.684 392.245 749.652 390.976C749.621 389.708 749.339 388.458 748.824 387.299C748.31 386.139 747.571 385.092 746.652 384.218C745.733 383.344 744.65 382.659 743.466 382.203C742.282 381.747 741.02 381.529 739.752 381.56C739.168 381.559 738.586 381.619 738.015 381.741C737.395 381.07 736.641 380.536 735.801 380.173C734.962 379.811 734.056 379.629 733.141 379.638L692.391 380.69C692.053 380.703 691.717 380.745 691.386 380.815C690.492 380.982 689.644 381.338 688.9 381.859C688.155 382.381 687.531 383.056 687.07 383.839C686.608 384.622 686.319 385.495 686.223 386.399C686.127 387.303 686.226 388.217 686.513 389.08L693.594 441.101ZM736.767 397.284L739.435 387.732C739.739 386.628 739.746 385.464 739.455 384.357C739.585 384.357 739.699 384.295 739.829 384.295C741.658 384.257 743.427 384.946 744.749 386.211C746.071 387.476 746.837 389.213 746.88 391.042C746.923 392.871 746.239 394.643 744.977 395.968C743.716 397.293 741.981 398.064 740.152 398.112C738.97 398.149 737.799 397.863 736.767 397.284Z" fill="#2F2E41"/>
<path d="M691.387 380.815C692.255 385.779 702.016 389.269 713.753 388.662C724.545 388.165 733.37 384.375 734.987 379.884C734.388 379.707 733.766 379.624 733.142 379.638L692.392 380.69C692.054 380.703 691.718 380.744 691.387 380.815Z" fill="#3F3D56"/>
<path d="M715.906 419.073C715.959 419.059 716.01 419.037 716.056 419.007L721.81 415.241C721.879 415.196 721.936 415.134 721.976 415.061C722.015 414.988 722.036 414.906 722.036 414.823C722.036 414.74 722.016 414.658 721.976 414.585C721.937 414.512 721.879 414.45 721.81 414.405L715.83 410.488C715.775 410.452 715.714 410.427 715.649 410.414C715.585 410.402 715.518 410.402 715.454 410.415C715.389 410.429 715.328 410.454 715.274 410.491C715.219 410.528 715.173 410.576 715.136 410.631C715.1 410.686 715.076 410.747 715.063 410.812C715.051 410.877 715.052 410.943 715.065 411.008C715.079 411.072 715.105 411.133 715.142 411.187C715.179 411.242 715.227 411.288 715.282 411.324L720.623 414.822L715.509 418.17C715.41 418.235 715.337 418.333 715.304 418.446C715.27 418.559 715.277 418.681 715.325 418.789C715.373 418.898 715.457 418.986 715.563 419.038C715.67 419.089 715.791 419.102 715.906 419.073Z" fill="#6C63FF"/>
<path d="M706.819 419.492C706.915 419.468 707.002 419.415 707.069 419.341C707.135 419.266 707.178 419.174 707.191 419.075C707.205 418.977 707.189 418.876 707.145 418.787C707.101 418.698 707.031 418.623 706.945 418.574L701.642 415.533L706.767 411.726C706.82 411.687 706.864 411.638 706.898 411.582C706.932 411.525 706.954 411.463 706.964 411.398C706.973 411.333 706.97 411.267 706.954 411.203C706.938 411.14 706.909 411.08 706.87 411.027C706.831 410.974 706.782 410.93 706.726 410.896C706.669 410.863 706.607 410.84 706.542 410.831C706.477 410.821 706.411 410.825 706.347 410.841C706.284 410.857 706.224 410.885 706.171 410.924L700.433 415.187C700.366 415.236 700.313 415.301 700.277 415.377C700.242 415.452 700.226 415.535 700.231 415.617C700.236 415.7 700.262 415.781 700.305 415.851C700.349 415.922 700.41 415.98 700.482 416.021L706.447 419.441C706.56 419.506 706.693 419.524 706.819 419.492Z" fill="#6C63FF"/>
<path d="M715.333 422.373C715.381 422.361 715.427 422.341 715.47 422.315C715.526 422.281 715.575 422.236 715.614 422.183C715.652 422.13 715.68 422.07 715.696 422.006C715.711 421.942 715.714 421.876 715.704 421.811C715.694 421.746 715.671 421.684 715.637 421.628L707.482 408.22C707.413 408.107 707.301 408.026 707.173 407.994C707.044 407.963 706.908 407.985 706.795 408.054C706.682 408.123 706.6 408.234 706.569 408.362C706.538 408.491 706.559 408.627 706.627 408.74L714.783 422.149C714.838 422.24 714.922 422.311 715.021 422.351C715.12 422.392 715.229 422.399 715.333 422.373Z" fill="#6C63FF"/>
<path d="M256.838 260.827H212.647C210.844 260.827 209.383 262.289 209.383 264.091V268.409C209.383 270.211 210.844 271.673 212.647 271.673H256.838C258.641 271.673 260.102 270.211 260.102 268.409V264.091C260.102 262.289 258.641 260.827 256.838 260.827Z" fill="#6C63FF"/>
<path d="M282.597 282.519H186.889C185.086 282.519 183.625 283.98 183.625 285.783V290.1C183.625 291.903 185.086 293.364 186.889 293.364H282.597C284.4 293.364 285.861 291.903 285.861 290.1V285.783C285.861 283.98 284.4 282.519 282.597 282.519Z" fill="#E6E6E6"/>
<path d="M282.597 304.21H186.889C185.086 304.21 183.625 305.671 183.625 307.474V311.792C183.625 313.594 185.086 315.056 186.889 315.056H282.597C284.4 315.056 285.861 313.594 285.861 311.792V307.474C285.861 305.671 284.4 304.21 282.597 304.21Z" fill="#E6E6E6"/>
<path d="M290.711 376.846L290.928 377.53L290.939 377.553L297.464 397.391L304.971 420.252L319.093 463.213L319.23 469.887V469.91L320.28 523.594L317.371 530.872L320.645 542.805C320.645 542.805 319.139 524.768 311.062 535.126C306.488 541.012 301.138 547.036 296.746 552.682C303.145 555.272 309.648 557.614 316.253 559.709C317.679 560.166 319.116 560.599 320.553 561.033C320.861 561.124 321.169 561.215 321.477 561.307C343.372 567.781 366.007 571.42 388.828 572.132C390.015 572.167 391.178 572.189 392.308 572.212C392.707 572.224 393.095 572.235 393.483 572.235C394.76 572.247 396.027 572.258 397.304 572.258C399.882 572.258 402.449 572.22 405.004 572.144C423.918 571.611 442.721 569.068 461.096 564.558C460.97 556.972 460.628 548.108 460.138 538.64C459.909 533.997 454.787 528.966 454.479 524.106C454.263 520.456 458.86 517.022 458.62 513.314C457.069 490.488 455.13 499.25 453.692 483.086C453.544 481.5 453.407 479.983 453.282 478.534C452.358 468.153 451.719 461.662 451.719 461.662L457.856 422.979L467.496 362.244L466.754 361.024L465.921 360.613L415.077 335.448L412.317 328.375C411.512 326.337 410.117 324.587 408.309 323.349C406.502 322.111 404.366 321.442 402.175 321.428L368.682 321.291C366.944 321.283 365.229 321.69 363.68 322.477C362.13 323.265 360.791 324.411 359.773 325.82L350.704 338.379L290.711 376.846Z" fill="#3F3D56"/>
<path d="M326.815 453.654L319.228 469.887L314.05 480.975L305.14 527.621L300.68 532.355L296.858 515.596L256.86 524.477C255.548 517.187 256.509 524.723 255.699 516.727C255.927 516.498 256.167 516.27 256.406 516.042C257.045 515.449 257.581 514.89 257.57 514.354C257.114 486.77 258.483 439.827 269.913 411.388C271.703 406.745 274.064 402.342 276.94 398.281C277.168 397.973 277.385 397.665 277.602 397.357C282.872 389.976 286.203 382.709 290.926 377.542V377.53C290.956 377.507 290.982 377.48 291.006 377.45C291.023 377.442 291.039 377.43 291.052 377.416L323.495 360.213L324.887 399.319L325.879 427.427L326.815 453.654Z" fill="#3F3D56"/>
<path d="M443.801 458.264L453.277 478.539L456.584 485.6L465.491 532.242L469.937 536.964L473.767 520.209L475.567 519.84L508.025 513.118L517.486 543.164C519.618 539.611 520.458 535.431 519.864 531.33C519.27 527.23 517.278 523.46 514.225 520.658C513.579 520.074 513.04 519.505 513.056 518.966C513.594 486.523 511.61 427.283 493.688 402.9C487.997 395.163 484.582 387.456 479.613 382.072C479.597 382.056 479.597 382.041 479.582 382.041L467.491 362.243L466.752 361.027L465.922 360.612L443.801 458.264Z" fill="#3F3D56"/>
<path d="M386.398 311.759C411.007 311.759 430.956 291.809 430.956 267.201C430.956 242.592 411.007 222.642 386.398 222.642C361.789 222.642 341.84 242.592 341.84 267.201C341.84 291.809 361.789 311.759 386.398 311.759Z" fill="#FFB6B6"/>
<path d="M446.622 236.077C446.276 235.708 445.86 235.412 445.398 235.208C444.936 235.003 444.437 234.894 443.932 234.887L444.602 233.027C444.82 232.441 444.879 231.807 444.773 231.191C444.666 230.575 444.397 229.998 443.994 229.52C443.592 229.042 443.069 228.679 442.48 228.47C441.89 228.26 441.256 228.211 440.642 228.327L438.202 228.797L438.432 227.167C438.52 226.56 438.448 225.94 438.225 225.369C438.001 224.798 437.632 224.295 437.155 223.909C436.678 223.524 436.108 223.269 435.503 223.171C434.897 223.072 434.277 223.133 433.702 223.347C433.179 223.553 432.616 223.639 432.056 223.599C431.495 223.559 430.95 223.395 430.462 223.117C429.971 222.848 429.545 222.475 429.213 222.024C428.882 221.573 428.653 221.055 428.542 220.507L427.692 216.407L427.602 216.187C423.462 209.287 415.502 204.267 405.762 202.427C397.092 200.777 388.202 201.617 379.632 202.407C376.232 202.727 372.392 203.087 369.192 205.047C366.472 206.727 364.172 210.087 364.642 213.477C356.192 210.887 347.132 216.057 342.642 222.577C337.322 230.337 336.452 240.057 336.312 247.657C335.932 265.637 339.642 280.347 347.312 291.387C347.872 292.187 348.012 293.857 349.122 294.417L348.892 294.047C350.132 294.667 351.392 295.667 350.922 296.737C349.572 299.817 358.542 306.627 364.862 308.877C376.392 312.987 391.722 312.637 402.502 311.157L402.882 308.607C406.772 308.077 409.512 307.067 410.282 305.487C411.642 304.327 412.802 303.287 413.812 302.327L413.822 302.317C413.842 302.297 413.882 302.267 413.902 302.247C418.772 297.577 419.902 294.917 420.412 290.867C420.902 286.897 420.032 282.867 419.142 279.237C437.882 282.137 411.762 259.277 429.222 254.857C429.422 254.795 429.626 254.745 429.832 254.707C430.342 254.587 430.852 254.467 431.342 254.327C433.704 253.686 435.965 252.72 438.062 251.457C442.942 248.487 444.552 244.547 447.072 240.107C447.435 239.475 447.588 238.743 447.507 238.018C447.426 237.293 447.116 236.613 446.622 236.077Z" fill="#2F2E41"/>
<path d="M543.992 461.437C543.982 463.187 543.962 465.637 543.882 468.667C543.872 469.087 543.862 469.517 543.852 469.957C543.722 475.527 543.592 480.197 543.382 485.387C543.372 485.747 543.362 486.097 543.342 486.457C543.062 493.697 542.622 502.127 541.862 515.477C540.452 540.137 537.992 518.867 535.522 527.517C535.402 527.947 535.272 528.457 535.152 529.057C534.778 531.234 534.147 533.359 533.272 535.387C531.962 536.167 530.612 536.917 529.282 537.667C525.492 539.777 521.642 541.807 517.762 543.737C515.582 544.817 513.392 545.877 511.192 546.897C510.842 547.057 510.502 547.217 510.162 547.367C498.896 552.578 487.285 557.008 475.412 560.627C473.092 561.327 470.782 562.007 468.442 562.637C466.002 563.317 463.562 563.957 461.092 564.557C442.717 569.068 423.915 571.612 405.002 572.147C402.452 572.227 399.882 572.257 397.302 572.257C396.022 572.257 394.762 572.247 393.482 572.237C393.092 572.237 392.702 572.227 392.312 572.217C391.182 572.187 390.012 572.167 388.832 572.137C366.011 571.425 343.376 567.785 321.482 561.307L320.552 561.037C319.112 560.597 317.682 560.167 316.252 559.707C309.652 557.617 303.149 555.277 296.742 552.687C291.852 550.717 287.019 548.604 282.242 546.347C282.198 546.335 282.158 546.315 282.122 546.287C281.122 545.827 280.112 545.347 279.112 544.857C278.982 544.787 278.842 544.717 278.702 544.647C274.972 542.827 271.282 540.92 267.632 538.927C264.562 531.877 260.242 530.527 257.562 524.327C256.782 522.485 256.218 520.559 255.882 518.587C255.882 518.567 255.872 518.547 255.872 518.517C256.152 522.237 254.682 511.917 255.862 518.477C255.852 518.357 255.842 518.227 255.832 518.077C255.802 517.717 255.762 517.277 255.702 516.727C252.272 483.237 252.492 444.937 251.002 413.377C250.902 411.337 250.799 409.384 250.692 407.517C250.662 406.897 250.622 406.287 250.582 405.687C250.652 405.507 250.732 405.317 250.822 405.137C250.841 405.085 250.865 405.035 250.892 404.987C250.922 404.925 250.955 404.865 250.992 404.807C251.012 404.777 251.042 404.737 251.062 404.707C251.077 404.673 251.093 404.639 251.112 404.607C251.202 404.467 251.302 404.317 251.412 404.177C251.462 404.117 251.502 404.067 251.552 404.017C251.587 403.966 251.627 403.919 251.672 403.877C251.703 403.829 251.74 403.785 251.782 403.747C251.822 403.707 251.862 403.657 251.912 403.607C251.933 403.575 251.961 403.548 251.992 403.527C252.071 403.436 252.158 403.352 252.252 403.277C252.609 402.949 252.99 402.648 253.392 402.377C253.532 402.287 253.682 402.197 253.822 402.097C254.83 401.494 255.891 400.985 256.992 400.577C257.372 400.437 257.752 400.307 258.162 400.167C258.312 400.127 258.452 400.077 258.602 400.027C258.822 399.957 259.042 399.887 259.272 399.837C260.412 399.497 261.642 399.207 262.972 398.937C263.132 398.907 263.302 398.877 263.472 398.837C263.712 398.787 263.962 398.747 264.212 398.707C264.552 398.647 264.902 398.587 265.252 398.527C268.222 398.057 271.592 397.707 275.312 397.477C275.662 397.457 276.012 397.437 276.362 397.417C276.772 397.397 277.182 397.377 277.602 397.357C277.952 397.337 278.312 397.327 278.672 397.317C279.022 397.297 279.382 397.287 279.752 397.277C280.762 397.247 281.802 397.217 282.862 397.197C285.882 397.137 289.062 397.157 292.402 397.227C293.952 397.267 295.532 397.307 297.152 397.377C297.262 397.377 297.362 397.387 297.462 397.387C298.872 397.437 300.292 397.497 301.752 397.577C302.772 397.627 303.802 397.677 304.832 397.737C305.802 397.797 306.782 397.857 307.772 397.927C308.542 397.967 309.312 398.027 310.092 398.077C310.752 398.127 311.412 398.177 312.072 398.217L312.972 398.277C313.462 398.317 313.952 398.347 314.452 398.397C315.552 398.487 316.652 398.577 317.772 398.667C318.882 398.767 320.012 398.867 321.142 398.967C322.272 399.067 323.412 399.177 324.552 399.287C324.672 399.297 324.782 399.307 324.892 399.317C325.932 399.427 326.972 399.527 328.022 399.637C328.262 399.657 328.512 399.677 328.752 399.707C329.753 399.807 330.774 399.925 331.784 400.033C332.094 400.066 332.402 400.098 332.713 400.132C333.505 400.219 334.285 400.293 335.082 400.387C336.132 400.507 337.202 400.617 338.242 400.757C339.052 400.847 339.862 400.937 340.672 401.037C341.942 401.187 343.232 401.347 344.522 401.517C345.012 401.577 345.502 401.637 345.992 401.707C349.672 402.167 353.392 402.677 357.172 403.207C362.902 404.017 368.722 404.897 374.582 405.847C380.452 406.797 386.355 407.8 392.292 408.857C393.792 409.127 395.292 409.397 396.802 409.677C397.482 409.807 398.162 409.937 398.842 410.067C400.002 410.277 401.162 410.497 402.322 410.717C403.482 410.937 404.642 411.157 405.802 411.387C407.182 411.657 408.572 411.927 409.952 412.197C419.042 413.997 428.082 415.917 436.902 417.927C438.352 418.257 439.802 418.597 441.242 418.927C444.122 419.597 446.975 420.277 449.802 420.967C450.582 421.147 451.352 421.337 452.122 421.527C454.042 422.007 455.962 422.487 457.852 422.977L458.182 423.067C459.572 423.407 460.932 423.757 462.292 424.117C465.502 424.957 468.659 425.807 471.762 426.667C473.822 427.237 475.859 427.814 477.872 428.397C480.882 429.267 483.832 430.147 486.702 431.037C487.412 431.257 488.122 431.477 488.822 431.687C490.922 432.337 492.992 432.997 495.002 433.657C496.602 434.177 498.162 434.707 499.702 435.237C501.242 435.767 502.752 436.297 504.232 436.827C505.182 437.167 506.122 437.527 507.062 437.867C508.412 438.367 509.742 438.867 511.042 439.367C511.442 439.517 511.832 439.677 512.222 439.827C512.472 439.937 512.712 440.027 512.952 440.127C513.422 440.317 513.902 440.497 514.362 440.687C514.832 440.867 515.292 441.057 515.752 441.257C516.202 441.437 516.662 441.627 517.102 441.817C517.552 441.997 517.992 442.187 518.432 442.387C518.802 442.537 519.162 442.697 519.512 442.857C520.222 443.167 520.932 443.477 521.622 443.797C521.962 443.957 522.302 444.107 522.642 444.267L523.422 444.627C523.532 444.687 523.642 444.737 523.752 444.787C524.002 444.907 524.262 445.037 524.512 445.157C525.092 445.427 525.662 445.717 526.222 445.987C526.972 446.367 527.702 446.747 528.402 447.117C529.112 447.497 529.802 447.877 530.462 448.247C530.572 448.307 530.672 448.367 530.782 448.427C530.932 448.507 531.082 448.597 531.232 448.677C531.742 448.967 532.232 449.267 532.722 449.557C533.682 450.147 534.592 450.727 535.442 451.307C535.632 451.437 535.812 451.567 536.002 451.687C536.632 452.137 537.232 452.577 537.792 453.027C537.792 453.037 537.792 453.037 537.802 453.037C537.992 453.177 538.172 453.327 538.352 453.467C538.502 453.607 538.662 453.727 538.812 453.867C539.332 454.317 539.812 454.747 540.252 455.187C540.399 455.323 540.54 455.466 540.672 455.617C540.73 455.665 540.784 455.719 540.832 455.777C541.032 455.977 541.212 456.177 541.382 456.377C541.408 456.404 541.432 456.434 541.452 456.467C541.692 456.747 541.912 457.027 542.122 457.307C542.222 457.447 542.332 457.587 542.422 457.727C542.542 457.897 542.662 458.077 542.762 458.247C542.852 458.387 542.932 458.537 543.012 458.677C543.224 459.037 543.405 459.415 543.552 459.807C543.664 460.072 543.755 460.346 543.822 460.627C543.898 460.892 543.954 461.163 543.992 461.437Z" fill="#46455B"/>
<path opacity="0.2" d="M543.99 461.437C543.98 463.187 543.96 465.637 543.88 468.667C543.87 469.087 543.85 469.517 543.84 469.957C543.74 474.207 543.59 479.457 543.38 485.387C543.37 485.747 543.36 486.097 543.34 486.457C543.06 493.697 542.62 502.127 541.86 515.477C540.45 540.137 537.99 518.867 535.52 527.517C528.66 523.297 521.14 518.877 513.1 514.337C511.65 513.517 510.187 512.693 508.71 511.867C492.63 502.897 474.67 493.497 455.92 484.187C455.18 483.817 454.43 483.447 453.69 483.087C410.74 461.857 363.86 441.207 325.88 427.427C318.55 424.767 311.55 422.367 304.97 420.257C291.11 415.827 279.13 412.727 269.91 411.387C260.31 409.987 253.68 410.487 251 413.377C250.9 411.337 250.797 409.383 250.69 407.517C250.65 406.897 250.61 406.287 250.57 405.687C250.632 405.522 250.712 405.365 250.79 405.207C250.801 405.183 250.809 405.16 250.82 405.137C250.839 405.085 250.863 405.035 250.89 404.987C250.92 404.925 250.953 404.865 250.99 404.807C251.023 404.736 251.063 404.669 251.11 404.607C251.2 404.467 251.3 404.317 251.41 404.177C251.491 404.072 251.578 403.972 251.67 403.877C251.701 403.829 251.738 403.785 251.78 403.747C251.82 403.707 251.86 403.657 251.91 403.607C251.932 403.575 251.959 403.548 251.99 403.527C252.069 403.436 252.156 403.352 252.25 403.277C252.607 402.948 252.988 402.648 253.39 402.377C253.53 402.287 253.68 402.197 253.82 402.097C254.828 401.494 255.889 400.985 256.99 400.577C257.37 400.437 257.75 400.307 258.16 400.167C258.31 400.127 258.45 400.077 258.6 400.027C258.82 399.957 259.04 399.887 259.27 399.837C260.41 399.497 261.64 399.207 262.97 398.937C263.37 398.857 263.79 398.777 264.21 398.707C264.55 398.647 264.9 398.587 265.25 398.527C268.22 398.057 271.59 397.707 275.31 397.477C275.66 397.457 276.01 397.437 276.36 397.417C276.77 397.397 277.18 397.377 277.6 397.357C277.95 397.337 278.31 397.327 278.67 397.317C279.02 397.297 279.38 397.287 279.75 397.277C280.76 397.247 281.8 397.217 282.86 397.197C285.88 397.147 289.06 397.167 292.4 397.237C293.95 397.267 295.53 397.317 297.15 397.387C297.25 397.387 297.36 397.397 297.46 397.397C298.87 397.437 300.3 397.507 301.75 397.577C302.77 397.627 303.8 397.677 304.83 397.737C305.8 397.797 306.78 397.857 307.77 397.927C308.54 397.967 309.31 398.027 310.09 398.077C310.75 398.127 311.41 398.177 312.07 398.217C312.86 398.277 313.65 398.337 314.45 398.397C315.55 398.487 316.65 398.577 317.77 398.667C318.88 398.767 320.01 398.867 321.14 398.967C322.27 399.067 323.41 399.177 324.55 399.287C324.67 399.297 324.78 399.307 324.89 399.317C325.93 399.427 326.97 399.527 328.02 399.637C333.84 400.227 339.83 400.917 345.99 401.707C349.67 402.177 353.397 402.68 357.17 403.217C362.9 404.027 368.72 404.907 374.58 405.847C380.45 406.797 386.354 407.8 392.29 408.857C393.79 409.127 395.29 409.397 396.8 409.677C398.64 410.017 400.48 410.363 402.32 410.717C403.48 410.937 404.64 411.157 405.8 411.387C407.18 411.657 408.57 411.927 409.95 412.197C419.04 413.997 428.08 415.917 436.9 417.927C438.35 418.257 439.8 418.597 441.24 418.927C444.12 419.597 446.974 420.277 449.8 420.967C450.58 421.157 451.35 421.347 452.12 421.537C454.05 422.017 455.96 422.497 457.85 422.977V422.987C457.96 423.007 458.07 423.037 458.18 423.067C459.56 423.417 460.93 423.767 462.29 424.127C465.5 424.967 468.657 425.813 471.76 426.667C473.82 427.247 475.86 427.817 477.87 428.397C480.88 429.277 483.83 430.157 486.7 431.037C487.41 431.257 488.12 431.477 488.82 431.687C490.92 432.347 492.98 433.003 495 433.657C496.6 434.177 498.16 434.707 499.7 435.237C501.24 435.767 502.75 436.297 504.23 436.827C505.19 437.167 506.13 437.517 507.06 437.857C508.42 438.357 509.74 438.857 511.04 439.367C511.44 439.517 511.83 439.677 512.22 439.827C512.95 440.107 513.66 440.397 514.36 440.687C514.83 440.867 515.29 441.057 515.75 441.257C516.2 441.437 516.66 441.627 517.1 441.817C517.55 441.997 517.99 442.187 518.43 442.387C518.8 442.537 519.16 442.697 519.51 442.857C520.22 443.167 520.93 443.477 521.62 443.797C521.96 443.957 522.3 444.107 522.64 444.267L523.42 444.627C523.53 444.687 523.64 444.737 523.75 444.787C524.6 445.187 525.42 445.587 526.22 445.987C526.97 446.367 527.7 446.747 528.4 447.117C529.23 447.557 530.02 447.987 530.78 448.427C530.93 448.507 531.08 448.597 531.23 448.677C531.74 448.967 532.23 449.267 532.72 449.557C533.68 450.147 534.59 450.727 535.44 451.307C536.28 451.887 537.06 452.457 537.79 453.027C537.79 453.037 537.79 453.037 537.8 453.037C538.15 453.317 538.49 453.597 538.81 453.867C539.33 454.317 539.81 454.747 540.25 455.187C540.398 455.322 540.538 455.466 540.67 455.617C540.728 455.665 540.782 455.718 540.83 455.777C541.04 456.007 541.25 456.237 541.45 456.467C541.69 456.747 541.91 457.027 542.12 457.307C542.22 457.447 542.33 457.587 542.42 457.727C542.54 457.897 542.66 458.077 542.76 458.247C542.85 458.387 542.93 458.537 543.01 458.677C543.223 459.037 543.403 459.415 543.55 459.807C543.66 460.073 543.75 460.347 543.82 460.627C543.896 460.892 543.953 461.163 543.99 461.437Z" fill="black"/>
</g>
<defs>
<clipPath id="clip0_499_3843">
<rect width="786.82" height="572.258" fill="white"/>
</clipPath>
</defs>
</svg>
