<svg width="100" height="100" viewBox="0 0 100 100" fill="none" xmlns="http://www.w3.org/2000/svg">
<path d="M46 2.3094C48.4752 0.880338 51.5248 0.880339 54 2.3094L89.3013 22.6906C91.7765 24.1197 93.3013 26.7607 93.3013 29.6188V70.3812C93.3013 73.2393 91.7765 75.8803 89.3013 77.3094L54 97.6906C51.5248 99.1197 48.4752 99.1197 46 97.6906L10.6987 77.3094C8.22352 75.8803 6.69873 73.2393 6.69873 70.3812V29.6188C6.69873 26.7607 8.22352 24.1197 10.6987 22.6906L46 2.3094Z" fill="url(#paint0_linear_614_3970)"/>
<path d="M28.324 61V35.272H29.284V61H28.324ZM24.1 61V35.272H25.06V61H24.1ZM26.212 61V35.272H27.172V61H26.212ZM49.028 61V35.272H49.988V61H49.028ZM44.804 61V35.272H45.764V61H44.804ZM46.916 61V35.272H47.876V61H46.916ZM38.244 46.152L37.668 45.288L43.652 36.616V38.312L38.244 46.152ZM39.524 51.688L30.436 38.696V37.064L40.132 50.856L39.524 51.688ZM39.556 48.008L38.98 47.144L43.652 40.488V42.152L39.556 48.008ZM38.244 53.576L30.436 42.44V40.744L38.82 52.712L38.244 53.576ZM40.836 49.832L40.26 49L43.652 44.168V45.832L40.836 49.832ZM36.964 55.4L30.436 46.12V44.424L37.54 54.568L36.964 55.4ZM57.4178 61V35.272H58.3778V61H57.4178ZM53.1938 61V35.272H54.1538V61H53.1938ZM55.3058 61V35.272H56.2658V61H55.3058ZM74.0258 61V35.272H74.9858V61H74.0258ZM69.8018 61V35.272H70.7618V61H69.8018ZM71.9138 61V35.272H72.8738V61H71.9138ZM59.5298 46.504V45.544H68.6498V46.504H59.5298ZM59.5298 48.616V47.656H68.6498V48.616H59.5298ZM59.5298 50.728V49.768H68.6498V50.728H59.5298Z" fill="black"/>
<defs>
<linearGradient id="paint0_linear_614_3970" x1="6.5" y1="50" x2="91.5" y2="50" gradientUnits="userSpaceOnUse">
<stop stop-color="#FF9352"/>
<stop offset="1" stop-color="#FFB22A"/>
</linearGradient>
</defs>
</svg>
