<svg width="100" height="100" viewBox="0 0 100 100" fill="none" xmlns="http://www.w3.org/2000/svg">
<path d="M46 2.3094C48.4752 0.880338 51.5248 0.880339 54 2.3094L89.3013 22.6906C91.7765 24.1197 93.3013 26.7607 93.3013 29.6188V70.3812C93.3013 73.2393 91.7765 75.8803 89.3013 77.3094L54 97.6906C51.5248 99.1197 48.4752 99.1197 46 97.6906L10.6987 77.3094C8.22352 75.8803 6.69873 73.2393 6.69873 70.3812V29.6188C6.69873 26.7607 8.22352 24.1197 10.6987 22.6906L46 2.3094Z" fill="url(#paint0_linear_615_3971)"/>
<path d="M41.204 65.324L40.808 66.548L34.652 67.088L31.592 65.576V66.98L25.904 67.484L22.304 65.684V38.324L29.36 37.676L32.96 39.476L35.84 50.204L39.152 37.532L46.172 36.956L49.772 38.756V66.152L43.796 66.62L41.204 65.324ZM39.44 37.892L34.868 55.532C34.796 55.82 34.724 56.156 34.652 56.54C34.58 56.9 34.52 57.224 34.472 57.512C34.424 57.8 34.4 57.944 34.4 57.944L34.256 57.98C34.256 57.98 34.232 57.836 34.184 57.548C34.16 57.26 34.112 56.924 34.04 56.54C33.992 56.156 33.932 55.832 33.86 55.568L29.072 38.072L22.664 38.648V65.288L27.632 64.892V53.372C27.632 52.868 27.62 52.34 27.596 51.788C27.572 51.212 27.548 50.732 27.524 50.348C27.5 49.964 27.488 49.772 27.488 49.772L27.56 49.736C27.608 50.072 27.668 50.492 27.74 50.996C27.836 51.476 27.932 51.944 28.028 52.4C28.148 52.832 28.232 53.168 28.28 53.408L31.304 64.928L36.884 64.424L39.836 53.372C39.98 52.82 40.112 52.244 40.232 51.644C40.352 51.02 40.448 50.492 40.52 50.06C40.592 49.628 40.628 49.412 40.628 49.412L40.7 49.448C40.7 49.448 40.688 49.664 40.664 50.096C40.64 50.528 40.616 51.032 40.592 51.608C40.568 52.184 40.556 52.7 40.556 53.156V64.46L45.812 64.028V37.352L39.44 37.892ZM66.4985 64.748V55.172L64.1585 55.388V66.656L57.9665 67.196L54.3665 65.396V38.036L60.5585 37.496L64.1585 39.296V47.396L66.4985 47.18V37.352L72.7265 36.776L76.3265 38.576V65.972L70.0985 66.512L66.4985 64.748ZM66.8585 37.676V47.504L60.1985 48.08V37.892L54.7265 38.36V65L60.1985 64.568V53.264L66.8585 52.688V64.352L72.3665 63.848V37.172L66.8585 37.676Z" fill="black"/>
<defs>
<linearGradient id="paint0_linear_615_3971" x1="6.5" y1="50" x2="91.5" y2="50" gradientUnits="userSpaceOnUse">
<stop stop-color="#FF9352"/>
<stop offset="1" stop-color="#FFB22A"/>
</linearGradient>
</defs>
</svg>
