<svg width="3000" height="2500" viewBox="0 0 3000 2500" fill="none" xmlns="http://www.w3.org/2000/svg">
<g clip-path="url(#clip0_545_395)">
<path d="M629.19 1995.46C629.19 1995.46 227.636 1668.4 678.815 1239.55C1130 810.711 1770.12 703.689 2140.9 868.972C2511.67 1034.26 2777.88 1703.27 2335.63 1972.8L629.19 1995.46Z" fill="#E6F5FF"/>
<mask id="mask0_545_395" style="mask-type:luminance" maskUnits="userSpaceOnUse" x="464" y="795" width="2103" height="1201">
<path d="M629.19 1995.46C629.19 1995.46 227.636 1668.4 678.815 1239.55C1130 810.711 1770.12 703.689 2140.9 868.972C2511.67 1034.26 2777.88 1703.27 2335.63 1972.8L629.19 1995.46Z" fill="white"/>
</mask>
<g mask="url(#mask0_545_395)">
<path d="M-22.792 1279.71C-213.512 1694.19 147.469 2047.31 520.066 2029.68C892.663 2012.06 833.362 2736.79 367.142 2794.01" stroke="white" stroke-miterlimit="10"/>
<path d="M42.583 1255.43C-148.137 1669.91 212.844 2023.03 585.441 2005.4C958.038 1987.78 898.737 2712.51 432.517 2769.73" stroke="white" stroke-width="1.222" stroke-miterlimit="10"/>
<path d="M107.958 1231.15C-82.762 1645.63 278.218 1998.74 650.815 1981.12C1023.41 1963.49 964.111 2688.23 497.891 2745.44" stroke="white" stroke-width="1.444" stroke-miterlimit="10"/>
<path d="M173.333 1206.86C-17.387 1621.34 343.593 1974.46 716.191 1956.83C1088.79 1939.21 1029.49 2663.94 563.267 2721.16" stroke="white" stroke-width="1.667" stroke-miterlimit="10"/>
<path d="M238.707 1182.58C47.9881 1597.06 408.968 1950.18 781.565 1932.55C1154.16 1914.93 1094.86 2639.66 628.641 2696.88" stroke="white" stroke-width="1.889" stroke-miterlimit="10"/>
<path d="M304.082 1158.3C113.362 1572.78 474.343 1925.89 846.94 1908.27C1219.54 1890.64 1160.24 2615.38 694.015 2672.59" stroke="white" stroke-width="2.111" stroke-miterlimit="10"/>
<path d="M369.458 1134.02C178.738 1548.49 539.718 1901.61 912.316 1883.99C1284.91 1866.36 1225.61 2591.1 759.391 2648.31" stroke="white" stroke-width="2.333" stroke-miterlimit="10"/>
<path d="M434.832 1109.73C244.112 1524.21 605.093 1877.33 977.689 1859.7C1350.29 1842.08 1290.99 2566.81 824.765 2624.03" stroke="white" stroke-width="2.555" stroke-miterlimit="10"/>
<path d="M500.207 1085.45C309.487 1499.93 670.468 1853.05 1043.07 1835.42C1415.66 1817.8 1356.36 2542.53 890.14 2599.75" stroke="white" stroke-width="2.778" stroke-miterlimit="10"/>
<path d="M565.582 1061.17C374.862 1475.65 735.843 1828.76 1108.44 1811.14C1481.04 1793.51 1421.74 2518.25 955.515 2575.46" stroke="white" stroke-width="3" stroke-miterlimit="10"/>
<path d="M630.957 1036.88C440.237 1451.36 801.218 1804.48 1173.82 1786.86C1546.41 1769.23 1487.11 2493.96 1020.89 2551.18" stroke="white" stroke-width="3.222" stroke-miterlimit="10"/>
<path d="M696.332 1012.6C505.612 1427.08 866.592 1780.2 1239.19 1762.57C1611.79 1744.95 1552.49 2469.68 1086.27 2526.9" stroke="white" stroke-width="3.444" stroke-miterlimit="10"/>
<path d="M761.707 988.319C570.987 1402.8 931.967 1755.92 1304.56 1738.29C1677.16 1720.67 1617.86 2445.4 1151.64 2502.62" stroke="white" stroke-width="3.667" stroke-miterlimit="10"/>
<path d="M827.082 964.037C636.362 1378.52 997.342 1731.63 1369.94 1714.01C1742.54 1696.38 1683.24 2421.12 1217.01 2478.33" stroke="white" stroke-width="3.889" stroke-miterlimit="10"/>
<path d="M892.457 939.754C701.737 1354.23 1062.72 1707.35 1435.31 1689.73C1807.91 1672.1 1748.61 2396.84 1282.39 2454.05" stroke="white" stroke-width="4.111" stroke-miterlimit="10"/>
<path d="M957.832 915.471C767.111 1329.95 1128.09 1683.07 1500.69 1665.44C1873.29 1647.82 1813.99 2372.55 1347.76 2429.77" stroke="white" stroke-width="4.333" stroke-miterlimit="10"/>
<path d="M1023.21 891.189C832.487 1305.67 1193.47 1658.79 1566.06 1641.16C1938.66 1623.54 1879.36 2348.27 1413.14 2405.48" stroke="white" stroke-width="4.556" stroke-miterlimit="10"/>
<path d="M1088.58 866.906C897.861 1281.39 1258.84 1634.5 1631.44 1616.88C2004.04 1599.25 1944.74 2323.99 1478.51 2381.2" stroke="white" stroke-width="4.778" stroke-miterlimit="10"/>
<path d="M1153.96 842.624C963.236 1257.1 1324.22 1610.22 1696.81 1592.59C2069.41 1574.97 2010.11 2299.7 1543.89 2356.92" stroke="white" stroke-width="5" stroke-miterlimit="10"/>
<path d="M1219.33 818.34C1028.61 1232.82 1389.59 1585.94 1762.19 1568.31C2134.79 1550.69 2075.49 2275.42 1609.27 2332.64" stroke="white" stroke-width="5.222" stroke-miterlimit="10"/>
<path d="M1284.71 794.058C1093.99 1208.54 1454.97 1561.65 1827.56 1544.03C2200.16 1526.4 2140.86 2251.14 1674.64 2308.36" stroke="white" stroke-width="5.444" stroke-miterlimit="10"/>
<path d="M1350.08 769.775C1159.36 1184.25 1520.34 1537.37 1892.94 1519.75C2265.54 1502.12 2206.24 2226.86 1740.01 2284.07" stroke="white" stroke-width="5.667" stroke-miterlimit="10"/>
<path d="M1415.46 745.493C1224.74 1159.97 1585.72 1513.09 1958.31 1495.47C2330.91 1477.84 2271.61 2202.57 1805.39 2259.79" stroke="white" stroke-width="5.889" stroke-miterlimit="10"/>
<path d="M1480.83 721.21C1290.11 1135.69 1651.09 1488.81 2023.69 1471.18C2396.29 1453.56 2336.98 2178.29 1870.76 2235.51" stroke="white" stroke-width="6.111" stroke-miterlimit="10"/>
<path d="M1546.21 696.927C1355.49 1111.41 1716.47 1464.52 2089.06 1446.9C2461.66 1429.27 2402.36 2154.01 1936.14 2211.22" stroke="white" stroke-width="6.333" stroke-miterlimit="10"/>
<path d="M1611.58 672.645C1420.86 1087.12 1781.84 1440.24 2154.44 1422.61C2527.04 1404.99 2467.73 2129.73 2001.51 2186.94" stroke="white" stroke-width="6.556" stroke-miterlimit="10"/>
<path d="M1676.96 648.362C1486.24 1062.84 1847.22 1415.96 2219.81 1398.33C2592.41 1380.71 2533.11 2105.44 2066.89 2162.66" stroke="white" stroke-width="6.778" stroke-miterlimit="10"/>
<path d="M1742.33 624.08C1551.61 1038.56 1912.59 1391.68 2285.19 1374.05C2657.79 1356.43 2598.48 2081.16 2132.26 2138.38" stroke="white" stroke-width="7" stroke-miterlimit="10"/>
<path d="M1807.71 599.797C1616.99 1014.28 1977.97 1367.39 2350.56 1349.77C2723.16 1332.14 2663.86 2056.88 2197.64 2114.09" stroke="white" stroke-width="7.222" stroke-miterlimit="10"/>
<path d="M1873.08 575.514C1682.36 989.994 2043.34 1343.11 2415.94 1325.49C2788.54 1307.86 2729.23 2032.6 2263.01 2089.81" stroke="white" stroke-width="7.444" stroke-miterlimit="10"/>
<path d="M1938.46 551.231C1747.74 965.711 2108.72 1318.83 2481.31 1301.2C2853.91 1283.58 2794.61 2008.31 2328.39 2065.53" stroke="white" stroke-width="7.667" stroke-miterlimit="10"/>
<path d="M2003.83 526.949C1813.11 941.429 2174.09 1294.55 2546.69 1276.92C2919.28 1259.3 2859.98 1984.03 2393.76 2041.25" stroke="white" stroke-width="7.889" stroke-miterlimit="10"/>
<path d="M2069.21 502.667C1878.49 917.147 2239.47 1270.26 2612.06 1252.64C2984.66 1235.01 2925.36 1959.75 2459.14 2016.96" stroke="white" stroke-width="8.111" stroke-miterlimit="10"/>
<path d="M2134.58 478.383C1943.86 892.863 2304.84 1245.98 2677.44 1228.36C3050.03 1210.73 2990.73 1935.47 2524.51 1992.68" stroke="white" stroke-width="8.333" stroke-miterlimit="10"/>
<path d="M2199.96 454.101C2009.24 868.58 2370.22 1221.7 2742.81 1204.07C3115.41 1186.45 3056.11 1911.18 2589.89 1968.4" stroke="white" stroke-width="8.556" stroke-miterlimit="10"/>
<path d="M2265.33 429.818C2074.61 844.298 2435.59 1197.42 2808.19 1179.79C3180.78 1162.17 3121.48 1886.9 2655.26 1944.12" stroke="white" stroke-width="8.778" stroke-miterlimit="10"/>
<path d="M2330.71 405.536C2139.99 820.016 2500.97 1173.13 2873.56 1155.51C3246.16 1137.88 3186.86 1862.62 2720.64 1919.83" stroke="white" stroke-width="9" stroke-miterlimit="10"/>
</g>
<path d="M1281.56 1548.02C1281.56 1548.02 1304.19 1687.06 1304.19 1768.54C1304.19 1850.03 1281.56 2014.93 1281.56 2014.93C1281.56 2014.93 1371.12 2091.56 1522.45 2078.95C1673.77 2066.34 1744.59 2022.69 1744.59 2022.69C1744.59 2022.69 1746.53 1874.28 1731.98 1793.76C1717.43 1713.25 1758.17 1502.76 1758.17 1502.76L1780.8 1315.86L1767.93 1285.47L1674.1 1253.78H1486.56L1381.15 1239.55L1268.62 1285.47L1256.98 1509.22L1281.56 1548.02Z" fill="#9CBDEF"/>
<path d="M1441.94 1130.91C1441.94 1183.94 1443.88 1203.34 1418.01 1221.45C1392.14 1239.55 1381.15 1239.55 1381.15 1239.55C1381.15 1239.55 1409.81 1306.81 1520.61 1303.57C1631.42 1300.34 1674.1 1253.78 1674.1 1253.78C1674.1 1253.78 1608.69 1227.49 1603.61 1187.81C1598.53 1148.14 1595.85 1119.92 1595.85 1119.92L1441.94 1130.91Z" fill="#F7BF6D"/>
<path d="M1328.93 966.813C1326.24 997.497 1333.78 1023.56 1353.18 1041.51C1372.58 1059.45 1385.19 1058.97 1385.19 1058.97C1385.19 1058.97 1407.01 1110.22 1435.47 1139.97C1463.92 1169.71 1506.6 1203.99 1552.52 1179.41C1598.43 1154.84 1624.3 1125.09 1639.82 1099.87C1655.34 1074.65 1660.52 1052.02 1660.52 1052.02C1660.52 1052.02 1669.89 1061.39 1685.74 1040.05C1701.58 1018.71 1714.84 1007.72 1712.57 964.389C1710.31 921.061 1705.46 910.391 1705.46 910.391C1705.46 910.391 1658.25 820.825 1532.15 831.495C1406.05 842.165 1352.69 881.936 1352.69 881.936L1335.23 952.262C1335.23 952.262 1329.7 957.948 1328.93 966.813Z" fill="#FFCC7B"/>
<path d="M1335.23 952.263C1348.33 951.779 1361.91 954.688 1369.18 980.394C1376.46 1006.1 1372.58 1025.99 1379.85 1028.41C1387.13 1030.84 1385.67 999.311 1384.22 974.09C1382.76 948.869 1375.97 899.399 1416.71 901.822C1457.45 904.248 1493.67 998.988 1583.56 915.566C1583.56 915.566 1573.86 951.987 1522.12 965.14C1522.12 965.14 1587.44 994.459 1633.35 941.432C1633.35 941.432 1632.54 970.21 1646.61 970.695C1660.68 971.179 1667.46 992.521 1661.65 1016.29C1655.83 1040.05 1666.98 1042.96 1673.77 1010.95C1680.56 978.94 1674.26 962.451 1694.14 955.175C1714.03 947.899 1712.57 964.39 1712.57 964.39C1712.57 964.39 1759.14 717.033 1584.53 704.422C1409.92 691.811 1336.2 798.827 1332.32 869.483C1328.44 940.138 1335.23 952.263 1335.23 952.263Z" fill="#191919"/>
<path d="M1268.62 1285.47C1178.09 1315.22 1153.51 1351.43 1140.58 1460.07C1127.65 1568.72 1106.95 1731.68 1104.36 1782.12C1101.78 1832.57 1117.94 1899.17 1163.86 1920.52C1209.77 1941.86 1328.76 1936.04 1328.76 1936.04L1333.94 1843.56C1333.94 1843.56 1235 1802.17 1224 1790.53C1213.01 1778.89 1280.91 1613.34 1293.52 1533.8C1306.13 1454.25 1268.62 1285.47 1268.62 1285.47ZM1767.93 1285.47C1858.46 1315.22 1883.03 1351.43 1895.97 1460.07C1908.9 1568.72 1929.6 1731.68 1932.18 1782.12C1934.77 1832.57 1918.6 1899.17 1872.69 1920.52C1826.77 1941.86 1707.78 1936.04 1707.78 1936.04L1702.61 1843.56C1702.61 1843.56 1801.55 1802.17 1812.55 1790.53C1823.54 1778.89 1755.64 1613.34 1743.03 1533.8C1730.42 1454.25 1767.93 1285.47 1767.93 1285.47Z" fill="#819FFC"/>
<path d="M1836.8 1883.23C1836.8 1908.61 1816.23 1929.17 1790.86 1929.17H1246.92C1221.55 1929.17 1200.98 1908.61 1200.98 1883.23L1155.05 1628.87C1155.05 1603.5 1175.61 1582.93 1200.98 1582.93H1817.53C1842.9 1582.93 1863.47 1603.5 1863.47 1628.87L1836.8 1883.23Z" fill="#BCBCBC"/>
<path d="M2583.3 1972.8H464.873V2018.13H2583.3V1972.8Z" fill="#828282"/>
<path d="M2522.74 2018.13H525.44V2099.23H2522.74V2018.13Z" fill="#6D6D6D"/>
<path d="M1836.8 1962.86C1836.8 1968.35 1832.35 1972.8 1826.86 1972.8H1210.93C1205.44 1972.8 1200.99 1968.35 1200.99 1962.86V1946.97C1200.99 1941.48 1205.44 1937.03 1210.93 1937.03H1826.86C1832.35 1937.03 1836.8 1941.48 1836.8 1946.97V1962.86Z" fill="#565656"/>
<path d="M1836.8 1891.09C1836.8 1916.46 1816.23 1937.03 1790.86 1937.03H1246.92C1221.55 1937.03 1200.98 1916.46 1200.98 1891.09L1155.05 1636.72C1155.05 1611.35 1175.61 1590.79 1200.98 1590.79H1817.53C1842.9 1590.79 1863.47 1611.35 1863.47 1636.72L1836.8 1891.09Z" fill="#AAAAAA"/>
<path d="M2718.21 1302.52H2137.06V1635.15H2718.21V1302.52Z" fill="#BBE2EF"/>
<path d="M2221.48 1332.6H2172.34V1381.74H2221.48V1332.6Z" fill="white"/>
<path d="M2496.77 1332.6H2238.8V1351.82H2496.77V1332.6Z" fill="white"/>
<path d="M2369.52 1362.53H2238.8V1381.74H2369.52V1362.53Z" fill="white"/>
<path d="M2221.48 1408.48H2172.34V1457.62H2221.48V1408.48Z" fill="white"/>
<path d="M2496.77 1408.48H2238.8V1427.7H2496.77V1408.48Z" fill="white"/>
<path d="M2369.52 1438.41H2238.8V1457.62H2369.52V1438.41Z" fill="white"/>
<path d="M2221.48 1484.36H2172.34V1533.5H2221.48V1484.36Z" fill="white"/>
<path d="M2496.77 1484.36H2238.8V1503.58H2496.77V1484.36Z" fill="white"/>
<path d="M2369.52 1514.29H2238.8V1533.5H2369.52V1514.29Z" fill="white"/>
<path d="M2221.48 1560.24H2172.34V1609.38H2221.48V1560.24Z" fill="white"/>
<path d="M2496.77 1560.24H2238.8V1579.45H2496.77V1560.24Z" fill="white"/>
<path d="M2369.52 1590.16H2238.8V1609.38H2369.52V1590.16Z" fill="white"/>
<path d="M2702.14 1329.77H2517.88V1473.56H2702.14V1329.77Z" fill="white"/>
<path d="M2702.14 1491.13H2517.88V1613.89H2702.14V1491.13Z" fill="white"/>
<path d="M2534.89 1438.41C2546.7 1407.26 2566.54 1371.03 2582.14 1391.82C2597.73 1412.61 2619.93 1434.28 2625.13 1427.7C2630.33 1421.11 2641.67 1399.85 2655.37 1397.96C2669.07 1396.07 2692.69 1438.41 2692.69 1438.41H2534.89ZM2534.89 1586.6C2546.7 1555.45 2566.54 1519.22 2582.14 1540.01C2597.73 1560.8 2619.93 1582.47 2625.13 1575.89C2630.33 1569.31 2641.67 1548.05 2655.37 1546.16C2669.07 1544.27 2692.69 1586.6 2692.69 1586.6H2534.89Z" fill="#8ECC36"/>
<path d="M2175.49 1355.44L2187.46 1374.65L2218.01 1349.46L2216.44 1347.88L2187.73 1366.9L2176.39 1354.26L2175.49 1355.44Z" fill="#FF8500"/>
<path d="M2175.49 1428.8L2187.46 1448.02L2218.01 1422.82L2216.44 1421.24L2187.73 1440.26L2176.39 1427.62L2175.49 1428.8Z" fill="#FF8500"/>
<path d="M2175.49 1502.16L2187.46 1521.38L2218.01 1496.18L2216.44 1494.6L2187.73 1513.62L2176.39 1500.98L2175.49 1502.16Z" fill="#FF8500"/>
<path d="M2175.49 1575.52L2187.46 1594.74L2218.01 1569.54L2216.44 1567.96L2187.73 1586.98L2176.39 1574.34L2175.49 1575.52Z" fill="#FF8500"/>
<path d="M1084.85 980.839H503.702V1313.46H1084.85V980.839Z" fill="#BBE2EF"/>
<path d="M781.935 1018.12H549.476V1031.98H781.935V1018.12Z" fill="white"/>
<path d="M686.18 1043.95H549.476V1057.81H686.18V1043.95Z" fill="white"/>
<path d="M781.935 1093.09H549.476V1106.95H781.935V1093.09Z" fill="white"/>
<path d="M686.18 1118.92H549.476V1132.78H686.18V1118.92Z" fill="white"/>
<path d="M781.935 1168.05H549.476V1181.91H781.935V1168.05Z" fill="white"/>
<path d="M686.18 1193.88H549.476V1207.74H686.18V1193.88Z" fill="white"/>
<path d="M781.935 1243.02H549.476V1256.88H781.935V1243.02Z" fill="white"/>
<path d="M686.18 1268.85H549.476V1282.71H686.18V1268.85Z" fill="white"/>
<path d="M1038.96 1153.88C1038.96 1210.77 992.846 1256.88 935.96 1256.88C879.074 1256.88 832.96 1210.77 832.96 1153.88C832.96 1097 879.074 1050.88 935.96 1050.88C939.608 1050.88 943.217 1051.07 946.771 1051.45L935.96 1153.88L1037.76 1138.12C1038.55 1143.26 1038.96 1148.52 1038.96 1153.88Z" fill="#FF8500"/>
<path d="M1046.9 1129.03L945.095 1144.79L955.906 1042.36C1002.49 1047.21 1039.85 1083.12 1046.9 1129.03Z" fill="#8ECC36"/>
<path d="M2159.75 716.866H1836.8V1134.26H2159.75V716.866Z" fill="#BBE2EF"/>
<path d="M2116.06 751.043H1880.49V769.377H2116.06V751.043Z" fill="white"/>
<path d="M2116.06 787.209H1880.49V805.544H2116.06V787.209Z" fill="white"/>
<path d="M2116.06 823.375H1880.49V841.71H2116.06V823.375Z" fill="white"/>
<path d="M2039.99 859.542H1880.49V877.876H2039.99V859.542Z" fill="white"/>
<path d="M2116.06 895.708H1880.49V914.043H2116.06V895.708Z" fill="white"/>
<path d="M2116.06 931.874H1880.49V950.209H2116.06V931.874Z" fill="white"/>
<path d="M2116.06 1005.39H1998.27V1106.34H2116.06V1005.39Z" fill="white"/>
<path d="M1988.6 1005.39H1880.49V1106.34H1988.6V1005.39Z" fill="white"/>
<path d="M1998.27 968.04H1880.49V986.375H1998.27V968.04Z" fill="white"/>
<path d="M1293.65 390.891H970.695V808.284H1293.65V390.891Z" fill="#BBE2EF"/>
<path d="M1249.96 542.734H1014.38V561.069H1249.96V542.734Z" fill="white"/>
<path d="M1249.96 578.9H1014.38V597.235H1249.96V578.9Z" fill="white"/>
<path d="M1249.96 444.053H1129.59V462.388H1249.96V444.053Z" fill="white"/>
<path d="M1208.07 480.219H1129.59V498.554H1208.07V480.219Z" fill="white"/>
<path d="M1249.96 680.295H1129.59V698.63H1249.96V680.295Z" fill="white"/>
<path d="M1208.07 716.461H1129.59V734.796H1208.07V716.461Z" fill="white"/>
<path d="M1118.7 664.809H1018.18V758.663H1118.7V664.809Z" fill="white"/>
<path d="M1132.17 615.067H1014.38V633.402H1132.17V615.067Z" fill="white"/>
<path d="M1047.6 488.513C1063.05 488.513 1075.58 475.987 1075.58 460.534C1075.58 445.082 1063.05 432.555 1047.6 432.555C1032.15 432.555 1019.62 445.082 1019.62 460.534C1019.62 475.987 1032.15 488.513 1047.6 488.513Z" stroke="#FF8500" stroke-width="8" stroke-miterlimit="10"/>
<path d="M1066.2 481.428L1111.13 523.673" stroke="#FF8500" stroke-width="8" stroke-miterlimit="10"/>
<path d="M910.273 1483.62H329.125V1816.24H910.273V1483.62Z" fill="#BBE2EF"/>
<path d="M460.714 1698.15H424.524V1761.8H460.714V1698.15Z" fill="#FF8500"/>
<path d="M524.487 1660.54H488.296V1761.8H524.487V1660.54Z" fill="#8ECC36"/>
<path d="M588.259 1634.5H552.069V1761.8H588.259V1634.5Z" fill="#FF8500"/>
<path d="M652.032 1687.4H615.842V1761.8H652.032V1687.4Z" fill="#8ECC36"/>
<path d="M715.805 1623.62H679.615V1761.8H715.805V1623.62Z" fill="#FF8500"/>
<path d="M779.578 1571.99H743.388V1761.8H779.578V1571.99Z" fill="#8ECC36"/>
<path d="M385.193 1666.9C383.303 1669.18 576.074 1560.83 576.074 1560.83L619.564 1623.62L776.405 1523.03" stroke="#8ECC36" stroke-width="6" stroke-miterlimit="10"/>
<path d="M480.318 1523.03H371.963V1536.89H480.318V1523.03Z" fill="#E6F5FF"/>
<path d="M440 1552.95H371.963V1566.81H440V1552.95Z" fill="#E6F5FF"/>
<path d="M1056.53 1581.6H854.072V1598.13H1056.53V1581.6Z" fill="#8ECC36"/>
<path d="M993.26 1611.36H854.072V1627.89H993.26V1611.36Z" fill="#8ECC36"/>
<path d="M1020.6 1641.12H854.072V1657.64H1020.6V1641.12Z" fill="#8ECC36"/>
<path d="M950.921 1670.88H854.072V1687.4H950.921V1670.88Z" fill="#8ECC36"/>
<path d="M890.485 772.893H694.563V796.741H890.485V772.893Z" fill="#FF8500"/>
<path d="M890.485 815.833H598.344V839.68H890.485V815.833Z" fill="#FF8500"/>
<path d="M799.297 858.774H607.984V882.621H799.297V858.774Z" fill="#FF8500"/>
<path d="M738.098 901.715H598.344V925.563H738.098V901.715Z" fill="#FF8500"/>
<path d="M2499.14 1108.09H2252.64V1128.21H2499.14V1108.09Z" fill="#BBE2EF"/>
<path d="M2401.08 1144.32H2252.64V1164.44H2401.08V1144.32Z" fill="#BBE2EF"/>
<path d="M2499.14 1180.55H2252.64V1200.68H2499.14V1180.55Z" fill="#BBE2EF"/>
<path d="M2370.56 1216.79H2252.64V1236.91H2370.56V1216.79Z" fill="#BBE2EF"/>
<path d="M2047.97 1972.8H1866.44C1866.44 1972.8 1874.64 1972.8 1897.97 1951.67C1921.31 1930.53 1967.97 1868.33 2037.97 1831.46C2037.97 1831.46 2058.1 1901.84 2059.36 1943.27C2059.89 1960.74 2057.06 1973.06 2047.97 1972.8Z" fill="#424242"/>
<path d="M2415.37 2049C2361.37 2099.23 2268.33 2331.34 2173 2241.67C2132.35 2203.44 2296.37 2054 2338.37 2035C2380.37 2016 2380.37 1974 2380.37 1974C2380.37 1974 2367.25 1975.06 2346.95 1976.41C2282.25 1980.69 2144.64 1987.87 2126.37 1972.8C2115.18 1963.56 2097.24 1948.19 2081.28 1934.42C2063.03 1918.67 2047.37 1905 2047.37 1905L2050.32 1811.21C2093.31 1729 2278.37 1725.87 2365.37 1777.87C2452.37 1829.87 2469.37 1998.77 2415.37 2049Z" fill="#EAEAEA"/>
<path d="M2190.73 2172.14C2187.67 2193.67 2187.67 2195.67 2203.67 2209C2219.67 2222.33 2218.6 2184.33 2234.8 2195.67C2251 2207 2268.33 2195.67 2287 2168.33C2305.67 2141 2308.17 2144.34 2328.58 2127C2349 2109.67 2382.99 2090.33 2382.99 2090.33C2382.99 2090.33 2327.14 2195.67 2286.07 2233C2245 2270.33 2209.67 2277.79 2181 2262.06C2152.33 2246.34 2156.33 2213.33 2165 2199.33C2173.67 2185.33 2190.73 2172.14 2190.73 2172.14ZM2346.95 1976.41C2320.33 1978.17 2281.35 1980.42 2243.43 1981.42C2189.2 1982.83 2137.12 1981.67 2126.37 1972.8C2116.73 1964.84 2102.09 1952.34 2088.02 1940.23C2085.75 1938.27 2083.5 1936.33 2081.28 1934.42C2083.1 1897.39 2085 1859.15 2085 1859.15L2078 1780C2136 1765 2176.95 1784 2185.97 1799C2195 1814 2206 1809 2239 1821C2272 1833 2299 1808 2315 1841C2331 1874 2288.8 1905.34 2293.4 1929.17C2298 1953 2321 1956.83 2334 1954.91C2342.28 1953.69 2347.72 1964.59 2346.95 1976.41Z" fill="#424242"/>
<path d="M2047.97 1972.8H1867.5C1877.96 1968.67 1890.67 1959.67 1913.25 1956.75C1926.22 1955.08 2001.14 1948.72 2004.81 1943C2011.67 1932.33 2028.93 1922.09 2051.3 1939.88C2053.47 1941.6 2056.19 1942.69 2059.36 1943.27C2059.89 1960.74 2057.06 1973.06 2047.97 1972.8ZM2265.66 1981.42C2211.43 1982.83 2137.12 1981.67 2126.37 1972.8C2116.73 1964.84 2102.09 1952.34 2088.02 1940.23C2120.17 1931.87 2160.47 1912.32 2170.33 1921.17C2185 1934.33 2209.36 1921.05 2212.51 1937.03C2215.67 1953 2219.72 1956.5 2239.67 1966.7C2245.21 1969.53 2262.77 1977.54 2265.66 1981.42Z" fill="#EAEAEA"/>
<path d="M2207.31 1895.67C2199.85 1924.96 2191.13 1944.17 2179.77 1956.67C2163.72 1974.33 2142.42 1978.61 2111.97 1979C2059.97 1979.67 2047.97 1972.8 2047.97 1972.8C1963.97 1898.33 2016.64 1784.33 2086.64 1778.33C2124.73 1775.07 2162.42 1789.17 2185.97 1814.09C2205.71 1834.97 2215.52 1863.45 2207.31 1895.67Z" fill="#F4F4F4"/>
<path d="M2192.64 1875C2284.31 1839.33 2293.38 1875 2293.38 1875C2293.38 1875 2297.64 1905.67 2195.31 1910.33C2153.93 1912.22 2192.64 1878.46 2192.64 1878.46V1875Z" fill="#EAA03D"/>
<path d="M2207.31 1895.67C2199.85 1924.96 2191.13 1944.17 2179.77 1956.67C2143.56 1958.13 2126.94 1937.38 2126 1923.5C2125.01 1908.85 2087.5 1914 2094.02 1896.5C2100.53 1879 2112 1875 2122.5 1859.15C2133 1843.3 2153.5 1855.5 2185.97 1814.09C2205.71 1834.97 2215.52 1863.45 2207.31 1895.67Z" fill="#EAA03D"/>
<path d="M2065.09 1826.67C1995.02 1757.63 2023.85 1734.76 2023.85 1734.76C2023.85 1734.76 2050.09 1718.31 2096.24 1809.77C2114.89 1846.75 2068.24 1825.25 2068.24 1825.25L2065.09 1826.67Z" fill="#F4F4F4"/>
<path d="M2042.97 1950.16C2042.97 1963.43 2055.31 1969.67 2064.31 1965.33C2073.31 1961 2069.64 1954.99 2057.64 1950.16C2045.64 1945.33 2042.97 1943.32 2042.97 1950.16Z" fill="#232323"/>
<path d="M2100.67 1936.26L2218.64 1943L2100.61 1937.26L2100.67 1936.26Z" fill="#A0A0A0"/>
<path d="M2098.46 1942.53L2207.97 1979.05L2098.15 1943.48L2098.46 1942.53Z" fill="#A0A0A0"/>
<path d="M2094.27 1947.2L2185.97 2002.83L2093.76 1948.05L2094.27 1947.2Z" fill="#A0A0A0"/>
<path d="M2041.39 1921.64L1931.63 1877.86L2041.76 1920.71L2041.39 1921.64Z" fill="#A0A0A0"/>
<path d="M2045.46 1916.39L1953.17 1847.05L2046.06 1915.59L2045.46 1916.39Z" fill="#A0A0A0"/>
<path d="M2050.92 1913.29L1981.57 1831.46L2051.68 1912.64L2050.92 1913.29Z" fill="#A0A0A0"/>
<path d="M2185.97 1744.65C2187.5 1770.5 2212.5 1789.57 2222 1782.54C2231.5 1775.5 2238.6 1763.06 2246.8 1774.53C2255 1786 2256 1792.24 2272.5 1777.87C2289 1763.5 2317.4 1757.35 2317.4 1757.35C2317.4 1757.35 2254.61 1735.62 2185.97 1744.65ZM2325.5 1890C2309.37 1901.32 2305.5 1900.98 2314 1915.99C2322.5 1931 2343.54 1936 2347.02 1918.5C2350.5 1901 2336.19 1882.5 2325.5 1890Z" fill="#EAA03D"/>
</g>
<defs>
<clipPath id="clip0_545_395">
<rect width="3000" height="2500" fill="white"/>
</clipPath>
</defs>
</svg>
