<svg width="1150" height="1301" viewBox="0 0 1150 1301" fill="none" xmlns="http://www.w3.org/2000/svg">
<path opacity="0.4" d="M622.8 487.14C614.3 481.596 608.2 481.483 604.5 486.687C600.7 491.891 598.9 500.715 598.9 513.047V579.793C598.9 592.464 597.9 602.985 595.8 611.357C593.7 620.068 590.2 626.177 585.4 629.797C580.7 633.53 574.3 634.435 566.2 632.739C558.3 631.155 548.4 626.403 536.6 618.71L531 614.977V562.371L538.1 567.01C546.6 572.553 552.2 573.232 555 569.272C558 565.313 559.5 557.167 559.5 544.836V486.008C559.5 470.623 560.8 458.518 563.5 449.693C566.1 440.756 571.4 435.1 579.3 432.611C571.4 419.827 566.1 407.156 563.5 394.825C560.9 382.494 559.6 368.692 559.6 353.306V294.479C559.6 282.147 558.1 271.966 555.1 264.16C552.3 256.467 546.6 249.792 538.2 244.249L531.1 239.61V187.005L536.7 190.738C548.5 198.431 558.4 206.689 566.3 215.4C574.4 224.225 580.8 233.501 585.5 243.457C590.4 253.412 593.9 264.046 595.9 275.473C598 286.559 599 298.438 599 311.109V377.856C599 390.187 600.9 401.5 604.6 411.569C608.4 421.637 614.5 429.556 622.9 434.987L622.8 487.14Z" fill="url(#paint0_linear_620_3855)"/>
<path opacity="0.4" d="M408.6 293.8C417.1 299.343 423.2 299.456 426.9 294.252C430.7 289.048 432.5 280.224 432.5 267.893V201.146C432.5 188.475 433.5 177.954 435.6 169.583C437.7 160.872 441.1 154.762 445.8 151.029C450.7 147.409 457.1 146.504 465 148.088C473.1 149.785 483.1 154.536 494.9 162.342L500.5 166.076V218.681L493.4 214.043C484.9 208.499 479.2 207.708 476.2 211.667C473.4 215.74 472 223.885 472 236.33V295.157C472 310.43 470.7 322.648 468 331.472C465.4 340.41 460.1 346.066 452.2 348.555C460.1 361.339 465.4 374.009 468 386.34C470.6 398.672 471.9 412.474 471.9 427.859V486.687C471.9 499.018 473.3 509.087 476.1 516.893C479.1 524.699 484.8 531.487 493.3 536.917L500.4 541.555V594.161L494.8 590.428C483 582.735 473 574.363 464.9 565.652C457 556.941 450.6 547.664 445.7 537.596C441 527.754 437.6 517.119 435.6 505.806C433.5 494.719 432.5 482.841 432.5 470.17V403.423C432.5 391.092 430.6 379.779 426.9 369.71C423.1 359.642 417 351.723 408.6 346.292V293.8Z" fill="url(#paint1_linear_620_3855)"/>
<path opacity="0.15" d="M651.7 161.89L862.8 299.796L862.7 872.349L651.6 734.556L651.7 161.89Z" fill="url(#paint2_linear_620_3855)"/>
<path fill-rule="evenodd" clip-rule="evenodd" d="M612 236.895L780 346.519V399.124L612 289.501V236.895Z" fill="#36E6BA" fill-opacity="0.6"/>
<path opacity="0.2" d="M679.199 480.465L838.399 584.432V743.606L679.199 639.639V480.465Z" fill="url(#paint3_linear_620_3855)"/>
<path opacity="0.15" d="M677.6 358.397L839.2 463.948V481.936L677.6 376.385V358.397Z" fill="white"/>
<path opacity="0.15" d="M677.6 394.599L817.3 485.782V503.77L677.6 412.587V394.599Z" fill="white"/>
<path opacity="0.15" d="M677.6 430.348L796.2 507.729V525.717L677.6 448.336V430.348Z" fill="white"/>
<path opacity="0.2" d="M651.7 161.89L862.8 299.796V376.498L651.6 238.705L651.7 161.89Z" fill="url(#paint4_linear_620_3855)"/>
<path opacity="0.2" d="M704.4 235.198C704.4 246.851 698.4 252.281 691 247.416C683.6 242.552 677.6 229.315 677.6 217.663C677.6 206.011 683.6 200.58 691 205.445C698.4 210.31 704.4 223.659 704.4 235.198Z" fill="white"/>
<path opacity="0.15" d="M271.299 337.242L921.099 761.481L920.999 1334.37L271.199 910.134L271.299 337.242Z" fill="url(#paint5_linear_620_3855)"/>
<path fill-rule="evenodd" clip-rule="evenodd" d="M228.199 478.429L396.099 588.052V640.658L228.199 531.148V478.429Z" fill="#03D9A4" fill-opacity="0.6"/>
<path opacity="0.15" d="M315.1 623.009L687.9 866.466V884.454L315.1 640.997V623.009Z" fill="white"/>
<path opacity="0.15" d="M315.1 659.211L636.7 869.181V887.169L315.1 677.199V659.211Z" fill="white"/>
<path opacity="0.15" d="M315.1 695.073L588.8 873.82V891.807L315.1 713.061V695.073Z" fill="white"/>
<path opacity="0.2" d="M566.699 923.144L894.499 1137.19V1296.36L566.699 1082.32V923.144Z" fill="url(#paint6_linear_620_3855)"/>
<path opacity="0.15" d="M591.398 970.772L640.798 1003.01V1055.62L591.398 1023.38V970.772Z" fill="white"/>
<path opacity="0.15" d="M651.898 1012.86L701.298 1045.1V1097.7L651.898 1065.46V1012.86Z" fill="white"/>
<path opacity="0.15" d="M712.699 1051.89L762.099 1084.13V1136.73L712.699 1104.49V1051.89Z" fill="white"/>
<path opacity="0.15" d="M773.5 1093.41L822.9 1125.65V1178.25L773.5 1146.01V1093.41Z" fill="white"/>
<path opacity="0.2" d="M254.1 712.948L527 891.128V1050.3L254.1 872.009V712.948Z" fill="url(#paint7_linear_620_3855)"/>
<path opacity="0.15" d="M281.6 771.663L498.4 913.189V931.177L281.6 789.65V771.663Z" fill="white"/>
<path opacity="0.15" d="M281.6 807.865L455.2 921.221V939.209L281.6 825.739V807.865Z" fill="white"/>
<path opacity="0.2" d="M271.299 337.242L920.199 761.028V838.636L271.299 414.962V337.242Z" fill="url(#paint8_linear_620_3855)"/>
<path opacity="0.2" d="M341.999 422.203C341.999 433.855 335.999 439.285 328.599 434.421C321.199 429.556 315.199 416.32 315.199 404.668C315.199 393.015 321.199 387.585 328.599 392.449C335.999 397.314 341.999 410.663 341.999 422.203Z" fill="white"/>
<defs>
<linearGradient id="paint0_linear_620_3855" x1="5687.05" y1="-1394.25" x2="-9280.02" y2="21540.2" gradientUnits="userSpaceOnUse">
<stop stop-color="white"/>
<stop offset="0.903" stop-color="white" stop-opacity="0"/>
</linearGradient>
<linearGradient id="paint1_linear_620_3855" x1="5714.17" y1="348.409" x2="-9256.22" y2="23283.1" gradientUnits="userSpaceOnUse">
<stop stop-color="white"/>
<stop offset="0.903" stop-color="white" stop-opacity="0"/>
</linearGradient>
<linearGradient id="paint2_linear_620_3855" x1="12450.9" y1="14206.2" x2="-6342.82" y2="42989.8" gradientUnits="userSpaceOnUse">
<stop stop-color="white"/>
<stop offset="1" stop-color="white" stop-opacity="0"/>
</linearGradient>
<linearGradient id="paint3_linear_620_3855" x1="10066.1" y1="7667.38" x2="4246.78" y2="16579.1" gradientUnits="userSpaceOnUse">
<stop stop-color="white"/>
<stop offset="1" stop-color="white" stop-opacity="0"/>
</linearGradient>
<linearGradient id="paint4_linear_620_3855" x1="7897.03" y1="2332.22" x2="14514.1" y2="18891.6" gradientUnits="userSpaceOnUse">
<stop stop-color="white"/>
<stop offset="1" stop-color="white" stop-opacity="0"/>
</linearGradient>
<linearGradient id="paint5_linear_620_3855" x1="38726.4" y1="28701.7" x2="27395" y2="46059.7" gradientUnits="userSpaceOnUse">
<stop stop-color="white"/>
<stop offset="1" stop-color="white" stop-opacity="0"/>
</linearGradient>
<linearGradient id="paint6_linear_620_3855" x1="19963.9" y1="13614" x2="13274.5" y2="23858.5" gradientUnits="userSpaceOnUse">
<stop stop-color="white"/>
<stop offset="1" stop-color="white" stop-opacity="0"/>
</linearGradient>
<linearGradient id="paint7_linear_620_3855" x1="16450.4" y1="11610.2" x2="10011.9" y2="21469.8" gradientUnits="userSpaceOnUse">
<stop stop-color="white"/>
<stop offset="1" stop-color="white" stop-opacity="0"/>
</linearGradient>
<linearGradient id="paint8_linear_620_3855" x1="16369.2" y1="10795.8" x2="34142.4" y2="37408.2" gradientUnits="userSpaceOnUse">
<stop stop-color="white"/>
<stop offset="1" stop-color="white" stop-opacity="0"/>
</linearGradient>
</defs>
</svg>
