<svg width="500" height="500" viewBox="0 0 500 500" fill="none" xmlns="http://www.w3.org/2000/svg">
<g opacity="0.45">
<path d="M371.5 456C417.063 456 454 419.063 454 373.5C454 327.937 417.063 291 371.5 291C325.937 291 289 327.937 289 373.5C289 419.063 325.937 456 371.5 456Z" fill="#DED7FF"/>
<path d="M189.5 350C267.096 350 330 287.096 330 209.5C330 131.904 267.096 69 189.5 69C111.904 69 49 131.904 49 209.5C49 287.096 111.904 350 189.5 350Z" fill="#DED7FF"/>
</g>
<path d="M445.914 195.421L441.72 199.261C441.58 199.389 441.458 199.528 441.346 199.673C438.682 197.816 435.753 196.482 432.705 195.677C432.745 195.494 432.775 195.307 432.782 195.115L433.005 189.433C433.074 187.665 431.692 186.17 429.924 186.101L424.242 185.878C422.475 185.809 420.979 187.191 420.91 188.959L420.687 194.641C420.68 194.832 420.695 195.02 420.72 195.205C417.702 195.753 414.755 196.811 412.015 198.383C411.916 198.229 411.806 198.08 411.679 197.94L407.839 193.746C406.644 192.441 404.61 192.351 403.305 193.546L399.111 197.386C397.806 198.581 397.716 200.615 398.912 201.92L402.752 206.114C402.88 206.253 403.019 206.376 403.164 206.488C401.307 209.152 399.973 212.081 399.168 215.129C398.985 215.089 398.798 215.059 398.607 215.052L392.925 214.829C392.074 214.795 391.26 215.093 390.632 215.668C390.628 215.671 390.624 215.675 390.621 215.679C389.992 216.261 389.626 217.053 389.593 217.91L389.37 223.592C389.301 225.36 390.683 226.855 392.451 226.924L398.133 227.147C398.325 227.155 398.512 227.138 398.697 227.112C399.245 230.131 400.303 233.078 401.875 235.818C401.721 235.916 401.572 236.026 401.432 236.154L397.238 239.994C395.933 241.189 395.843 243.223 397.039 244.528L400.879 248.722C402.074 250.027 404.108 250.117 405.413 248.921L409.607 245.081C409.747 244.953 409.869 244.814 409.981 244.669C412.646 246.527 415.575 247.861 418.624 248.666C418.584 248.848 418.553 249.034 418.545 249.227L418.322 254.909C418.288 255.766 418.59 256.584 419.172 257.213C419.754 257.843 420.546 258.208 421.402 258.241L427.084 258.464C427.963 258.498 428.773 258.174 429.376 257.623C429.986 257.065 430.382 256.273 430.417 255.383L430.64 249.701C430.648 249.509 430.631 249.321 430.605 249.137C433.624 248.589 436.571 247.531 439.311 245.959C439.41 246.113 439.52 246.263 439.648 246.402L443.488 250.596C444.683 251.901 446.717 251.991 448.022 250.796L452.216 246.956C453.521 245.761 453.611 243.727 452.415 242.422L448.575 238.228C448.447 238.088 448.308 237.966 448.163 237.854C450.021 235.19 451.355 232.26 452.16 229.211C452.342 229.251 452.528 229.282 452.721 229.29L458.403 229.513C459.282 229.547 460.093 229.223 460.695 228.672C461.305 228.114 461.701 227.322 461.735 226.432L461.959 220.75C462.028 218.982 460.646 217.487 458.878 217.418L453.196 217.195C453.005 217.187 452.817 217.202 452.631 217.227C452.083 214.209 451.025 211.263 449.453 208.523C449.607 208.425 449.757 208.315 449.896 208.187L454.09 204.347C455.395 203.152 455.485 201.118 454.289 199.813L450.449 195.619C449.252 194.315 447.219 194.226 445.914 195.421ZM435.84 233.287C429.711 238.899 420.159 238.479 414.546 232.35C408.934 226.221 409.354 216.669 415.483 211.056C421.612 205.444 431.164 205.864 436.777 211.993C442.389 218.123 441.969 227.675 435.84 233.287Z" stroke="#0F1B63" stroke-miterlimit="10"/>
<path d="M114.388 415.756H112.178C111.77 415.756 111.439 415.425 111.439 415.017C111.439 414.609 111.77 414.278 112.178 414.278H114.388C114.796 414.278 115.127 414.609 115.127 415.017C115.127 415.425 114.796 415.756 114.388 415.756ZM107.254 415.756H102.329C101.921 415.756 101.59 415.425 101.59 415.017C101.59 414.609 101.921 414.278 102.329 414.278H107.254C107.662 414.278 107.993 414.609 107.993 415.017C107.993 415.425 107.662 415.756 107.254 415.756ZM97.404 415.756H92.479C92.071 415.756 91.74 415.425 91.74 415.017C91.74 414.609 92.071 414.278 92.479 414.278H97.404C97.812 414.278 98.143 414.609 98.143 415.017C98.143 415.425 97.812 415.756 97.404 415.756ZM87.554 415.756H82.629C82.221 415.756 81.89 415.425 81.89 415.017C81.89 414.609 82.221 414.278 82.629 414.278H87.554C87.962 414.278 88.293 414.609 88.293 415.017C88.293 415.425 87.962 415.756 87.554 415.756ZM77.704 415.756H72.779C72.371 415.756 72.04 415.425 72.04 415.017C72.04 414.609 72.371 414.278 72.779 414.278H77.704C78.112 414.278 78.443 414.609 78.443 415.017C78.443 415.425 78.112 415.756 77.704 415.756ZM67.854 415.756H62.929C62.521 415.756 62.19 415.425 62.19 415.017C62.19 414.609 62.521 414.278 62.929 414.278H67.854C68.262 414.278 68.593 414.609 68.593 415.017C68.593 415.425 68.262 415.756 67.854 415.756ZM58.004 415.749C57.997 415.749 57.991 415.749 57.984 415.748C56.267 415.7 54.571 415.42 52.943 414.914C52.553 414.793 52.336 414.379 52.457 413.989C52.578 413.6 52.988 413.382 53.381 413.503C54.881 413.969 56.443 414.227 58.025 414.272C58.432 414.283 58.754 414.623 58.743 415.031C58.732 415.431 58.404 415.749 58.004 415.749ZM48.718 412.862C48.58 412.862 48.441 412.823 48.317 412.743C46.885 411.814 45.582 410.692 44.447 409.407C44.178 409.101 44.207 408.634 44.512 408.364C44.816 408.094 45.283 408.122 45.555 408.428C46.601 409.612 47.8 410.646 49.121 411.502C49.463 411.724 49.561 412.182 49.338 412.524C49.197 412.743 48.961 412.862 48.718 412.862ZM42.281 405.57C42.006 405.57 41.742 405.417 41.614 405.153C40.87 403.609 40.34 401.973 40.04 400.291C39.969 399.889 40.236 399.506 40.638 399.434C41.037 399.367 41.423 399.63 41.494 400.032C41.77 401.582 42.258 403.088 42.945 404.51C43.122 404.877 42.968 405.319 42.601 405.496C42.498 405.547 42.389 405.57 42.281 405.57ZM40.489 395.993C40.081 395.993 39.75 395.662 39.75 395.254V390.329C39.75 389.921 40.081 389.59 40.489 389.59C40.897 389.59 41.228 389.921 41.228 390.329V395.254C41.228 395.662 40.897 395.993 40.489 395.993ZM40.489 386.143C40.081 386.143 39.75 385.812 39.75 385.404V380.479C39.75 380.071 40.081 379.74 40.489 379.74C40.897 379.74 41.228 380.071 41.228 380.479V385.404C41.228 385.812 40.897 386.143 40.489 386.143ZM40.489 376.293C40.081 376.293 39.75 375.962 39.75 375.554V370.629C39.75 370.221 40.081 369.89 40.489 369.89C40.897 369.89 41.228 370.221 41.228 370.629V375.554C41.228 375.962 40.897 376.293 40.489 376.293ZM40.489 366.443C40.081 366.443 39.75 366.112 39.75 365.704V360.779C39.75 360.371 40.081 360.04 40.489 360.04C40.897 360.04 41.228 360.371 41.228 360.779V365.704C41.228 366.112 40.897 366.443 40.489 366.443ZM40.489 356.593C40.081 356.593 39.75 356.262 39.75 355.854V350.929C39.75 350.521 40.081 350.19 40.489 350.19C40.897 350.19 41.228 350.521 41.228 350.929V355.854C41.228 356.262 40.897 356.593 40.489 356.593ZM40.489 346.743C40.081 346.743 39.75 346.412 39.75 346.004V341.079C39.75 340.671 40.081 340.34 40.489 340.34C40.897 340.34 41.228 340.671 41.228 341.079V346.004C41.228 346.413 40.897 346.743 40.489 346.743ZM40.489 336.893C40.081 336.893 39.75 336.562 39.75 336.154V331.229C39.75 330.821 40.081 330.49 40.489 330.49C40.897 330.49 41.228 330.821 41.228 331.229V336.154C41.228 336.563 40.897 336.893 40.489 336.893ZM40.489 327.044C40.081 327.044 39.75 326.713 39.75 326.305V321.38C39.75 320.972 40.081 320.641 40.489 320.641C40.897 320.641 41.228 320.972 41.228 321.38V326.305C41.228 326.713 40.897 327.044 40.489 327.044ZM40.489 317.194C40.081 317.194 39.75 316.863 39.75 316.455V311.53C39.75 311.122 40.081 310.791 40.489 310.791C40.897 310.791 41.228 311.122 41.228 311.53V316.455C41.228 316.863 40.897 317.194 40.489 317.194ZM40.489 307.344C40.081 307.344 39.75 307.013 39.75 306.605V301.68C39.75 301.272 40.081 300.941 40.489 300.941C40.897 300.941 41.228 301.272 41.228 301.68V306.605C41.228 307.013 40.897 307.344 40.489 307.344ZM40.489 297.494C40.081 297.494 39.75 297.163 39.75 296.755V291.83C39.75 291.422 40.081 291.091 40.489 291.091C40.897 291.091 41.228 291.422 41.228 291.83V296.755C41.228 297.163 40.897 297.494 40.489 297.494ZM40.489 287.644C40.081 287.644 39.75 287.313 39.75 286.905V281.98C39.75 281.572 40.081 281.241 40.489 281.241C40.897 281.241 41.228 281.572 41.228 281.98V286.905C41.228 287.313 40.897 287.644 40.489 287.644ZM40.489 277.794C40.081 277.794 39.75 277.463 39.75 277.055V276.557C39.75 275.014 39.938 273.479 40.308 271.997C40.407 271.601 40.816 271.361 41.204 271.459C41.6 271.558 41.841 271.959 41.742 272.354C41.402 273.719 41.228 275.133 41.228 276.556V277.054C41.228 277.463 40.897 277.794 40.489 277.794ZM42.855 268.361C42.731 268.361 42.605 268.33 42.489 268.264C42.135 268.062 42.012 267.61 42.214 267.256C43.061 265.773 44.109 264.41 45.328 263.205C45.619 262.919 46.086 262.921 46.373 263.211C46.66 263.501 46.658 263.969 46.367 264.256C45.244 265.366 44.278 266.622 43.498 267.988C43.361 268.227 43.112 268.361 42.855 268.361ZM49.774 261.524C49.514 261.524 49.262 261.387 49.128 261.144C48.93 260.787 49.058 260.338 49.415 260.139C50.913 259.307 52.516 258.686 54.181 258.291C54.582 258.199 54.975 258.442 55.07 258.84C55.164 259.237 54.919 259.635 54.522 259.729C52.989 260.092 51.512 260.664 50.133 261.431C50.019 261.494 49.896 261.524 49.774 261.524ZM172.511 259.265H167.586C167.178 259.265 166.847 258.934 166.847 258.526C166.847 258.118 167.178 257.787 167.586 257.787H172.511C172.919 257.787 173.25 258.118 173.25 258.526C173.25 258.934 172.919 259.265 172.511 259.265ZM162.662 259.265H157.737C157.329 259.265 156.998 258.934 156.998 258.526C156.998 258.118 157.329 257.787 157.737 257.787H162.662C163.07 257.787 163.401 258.118 163.401 258.526C163.4 258.934 163.069 259.265 162.662 259.265ZM152.812 259.265H147.887C147.479 259.265 147.148 258.934 147.148 258.526C147.148 258.118 147.479 257.787 147.887 257.787H152.812C153.22 257.787 153.551 258.118 153.551 258.526C153.55 258.934 153.22 259.265 152.812 259.265ZM142.962 259.265H138.037C137.629 259.265 137.298 258.934 137.298 258.526C137.298 258.118 137.629 257.787 138.037 257.787H142.962C143.37 257.787 143.701 258.118 143.701 258.526C143.701 258.934 143.37 259.265 142.962 259.265ZM133.112 259.265H128.187C127.779 259.265 127.448 258.934 127.448 258.526C127.448 258.118 127.779 257.787 128.187 257.787H133.112C133.52 257.787 133.851 258.118 133.851 258.526C133.851 258.934 133.52 259.265 133.112 259.265ZM123.262 259.265H118.337C117.929 259.265 117.598 258.934 117.598 258.526C117.598 258.118 117.929 257.787 118.337 257.787H123.262C123.67 257.787 124.001 258.118 124.001 258.526C124.001 258.934 123.67 259.265 123.262 259.265ZM113.412 259.265H108.487C108.079 259.265 107.748 258.934 107.748 258.526C107.748 258.118 108.079 257.787 108.487 257.787H113.412C113.82 257.787 114.151 258.118 114.151 258.526C114.151 258.934 113.82 259.265 113.412 259.265ZM103.562 259.265H98.637C98.229 259.265 97.898 258.934 97.898 258.526C97.898 258.118 98.229 257.787 98.637 257.787H103.562C103.97 257.787 104.301 258.118 104.301 258.526C104.301 258.934 103.97 259.265 103.562 259.265ZM93.712 259.265H88.787C88.379 259.265 88.048 258.934 88.048 258.526C88.048 258.118 88.379 257.787 88.787 257.787H93.712C94.12 257.787 94.451 258.118 94.451 258.526C94.451 258.934 94.12 259.265 93.712 259.265ZM83.862 259.265H78.937C78.529 259.265 78.198 258.934 78.198 258.526C78.198 258.118 78.529 257.787 78.937 257.787H83.862C84.27 257.787 84.601 258.118 84.601 258.526C84.601 258.934 84.27 259.265 83.862 259.265ZM74.012 259.265H69.087C68.679 259.265 68.348 258.934 68.348 258.526C68.348 258.118 68.679 257.787 69.087 257.787H74.012C74.42 257.787 74.751 258.118 74.751 258.526C74.751 258.934 74.42 259.265 74.012 259.265ZM64.162 259.265H59.237C58.829 259.265 58.498 258.934 58.498 258.526C58.498 258.118 58.829 257.787 59.237 257.787H64.162C64.57 257.787 64.901 258.118 64.901 258.526C64.901 258.934 64.57 259.265 64.162 259.265Z" fill="#B19CFE"/>
<path d="M40.4885 340.209C42.2663 340.209 43.7075 338.768 43.7075 336.99C43.7075 335.212 42.2663 333.771 40.4885 333.771C38.7107 333.771 37.2695 335.212 37.2695 336.99C37.2695 338.768 38.7107 340.209 40.4885 340.209Z" fill="#B19CFE"/>
<path d="M40.4881 343.024C37.1621 343.024 34.4551 340.318 34.4551 336.991C34.4551 333.664 37.1621 330.958 40.4881 330.958C43.8141 330.958 46.5211 333.664 46.5211 336.991C46.5211 340.317 43.8141 343.024 40.4881 343.024ZM40.4881 331.696C37.5691 331.696 35.1941 334.071 35.1941 336.99C35.1941 339.909 37.5691 342.284 40.4881 342.284C43.4071 342.284 45.7821 339.909 45.7821 336.99C45.7821 334.071 43.4081 331.696 40.4881 331.696Z" fill="#B19CFE"/>
<path d="M206.297 236.753C205.801 236.753 205.398 236.35 205.398 235.854V229.862C205.398 229.366 205.801 228.963 206.297 228.963C206.793 228.963 207.196 229.366 207.196 229.862V235.854C207.196 236.35 206.793 236.753 206.297 236.753ZM206.297 224.769C205.801 224.769 205.398 224.366 205.398 223.87V217.878C205.398 217.382 205.801 216.979 206.297 216.979C206.793 216.979 207.196 217.382 207.196 217.878V223.87C207.196 224.366 206.793 224.769 206.297 224.769ZM206.297 212.784C205.801 212.784 205.398 212.381 205.398 211.885V205.893C205.398 205.397 205.801 204.994 206.297 204.994C206.793 204.994 207.196 205.397 207.196 205.893V211.885C207.196 212.382 206.793 212.784 206.297 212.784ZM206.297 200.8C205.801 200.8 205.398 200.397 205.398 199.901V193.909C205.398 193.413 205.801 193.01 206.297 193.01C206.793 193.01 207.196 193.413 207.196 193.909V199.901C207.196 200.398 206.793 200.8 206.297 200.8ZM206.297 188.816C205.801 188.816 205.398 188.413 205.398 187.917V181.925C205.398 181.429 205.801 181.026 206.297 181.026C206.793 181.026 207.196 181.429 207.196 181.925V187.917C207.196 188.413 206.793 188.816 206.297 188.816ZM206.297 176.832C205.801 176.832 205.398 176.429 205.398 175.933V169.941C205.398 169.445 205.801 169.042 206.297 169.042C206.793 169.042 207.196 169.445 207.196 169.941V175.933C207.196 176.429 206.793 176.832 206.297 176.832ZM301.459 166.037C300.963 166.037 300.56 165.634 300.56 165.138V161.812C300.56 161.316 300.963 160.913 301.459 160.913C301.955 160.913 302.358 161.316 302.358 161.812V165.138C302.358 165.634 301.955 166.037 301.459 166.037ZM206.297 164.848C205.801 164.848 205.398 164.446 205.398 163.949V157.957C205.398 157.461 205.801 157.058 206.297 157.058C206.793 157.058 207.196 157.461 207.196 157.957V163.949C207.196 164.445 206.793 164.848 206.297 164.848ZM301.459 156.719C300.963 156.719 300.56 156.317 300.56 155.82V149.828C300.56 149.332 300.963 148.929 301.459 148.929C301.955 148.929 302.358 149.332 302.358 149.828V155.82C302.358 156.316 301.955 156.719 301.459 156.719ZM206.297 152.864C205.801 152.864 205.398 152.461 205.398 151.965V145.973C205.398 145.477 205.801 145.074 206.297 145.074C206.793 145.074 207.196 145.477 207.196 145.973V151.965C207.196 152.461 206.793 152.864 206.297 152.864ZM301.459 144.734C300.963 144.734 300.56 144.331 300.56 143.835V137.843C300.56 137.347 300.963 136.944 301.459 136.944C301.955 136.944 302.358 137.347 302.358 137.843V143.835C302.358 144.332 301.955 144.734 301.459 144.734ZM206.297 140.879C205.801 140.879 205.398 140.476 205.398 139.98V133.988C205.398 133.492 205.801 133.089 206.297 133.089C206.793 133.089 207.196 133.492 207.196 133.988V139.98C207.196 140.477 206.793 140.879 206.297 140.879ZM301.459 132.75C300.963 132.75 300.56 132.347 300.56 131.851V125.859C300.56 125.363 300.963 124.96 301.459 124.96C301.955 124.96 302.358 125.363 302.358 125.859V131.851C302.358 132.348 301.955 132.75 301.459 132.75ZM206.297 128.895C205.801 128.895 205.398 128.492 205.398 127.996V122.004C205.398 121.508 205.801 121.105 206.297 121.105C206.793 121.105 207.196 121.508 207.196 122.004V127.996C207.196 128.493 206.793 128.895 206.297 128.895ZM301.459 120.766C300.963 120.766 300.56 120.363 300.56 119.867V113.875C300.56 113.379 300.963 112.976 301.459 112.976C301.955 112.976 302.358 113.379 302.358 113.875V119.867C302.358 120.364 301.955 120.766 301.459 120.766ZM206.297 116.911C205.801 116.911 205.398 116.508 205.398 116.012V110.02C205.398 109.524 205.801 109.121 206.297 109.121C206.793 109.121 207.196 109.524 207.196 110.02V116.012C207.196 116.508 206.793 116.911 206.297 116.911ZM301.459 108.782C300.963 108.782 300.56 108.379 300.56 107.883V101.891C300.56 101.395 300.963 100.992 301.459 100.992C301.955 100.992 302.358 101.395 302.358 101.891V107.883C302.358 108.379 301.955 108.782 301.459 108.782ZM206.297 104.927C205.801 104.927 205.398 104.524 205.398 104.028V98.036C205.398 97.54 205.801 97.137 206.297 97.137C206.793 97.137 207.196 97.54 207.196 98.036V104.028C207.196 104.524 206.793 104.927 206.297 104.927ZM301.42 96.799C300.947 96.799 300.551 96.429 300.524 95.951C300.415 94.03 300.045 92.14 299.425 90.331C299.265 89.862 299.515 89.35 299.984 89.189C300.449 89.029 300.966 89.278 301.125 89.748C301.799 91.712 302.201 93.765 302.319 95.849C302.347 96.345 301.968 96.769 301.473 96.798C301.455 96.798 301.438 96.799 301.42 96.799ZM206.888 92.99C206.819 92.99 206.75 92.982 206.68 92.966C206.197 92.851 205.898 92.367 206.013 91.884C206.493 89.856 207.25 87.905 208.262 86.085C208.502 85.651 209.051 85.495 209.484 85.737C209.918 85.978 210.074 86.526 209.833 86.96C208.9 88.635 208.204 90.432 207.762 92.299C207.664 92.712 207.295 92.99 206.888 92.99ZM297.587 85.61C297.301 85.61 297.021 85.475 296.846 85.223C295.754 83.643 294.454 82.22 292.98 80.993C292.6 80.675 292.547 80.108 292.865 79.727C293.183 79.344 293.749 79.295 294.131 79.612C295.729 80.943 297.139 82.487 298.324 84.2C298.606 84.609 298.504 85.168 298.096 85.451C297.942 85.559 297.763 85.61 297.587 85.61ZM212.63 82.643C212.402 82.643 212.174 82.556 211.998 82.383C211.645 82.034 211.642 81.465 211.991 81.112C213.457 79.629 215.115 78.354 216.918 77.323C217.347 77.077 217.898 77.227 218.145 77.658C218.391 78.089 218.241 78.638 217.81 78.885C216.148 79.834 214.621 81.009 213.269 82.377C213.093 82.554 212.861 82.643 212.63 82.643ZM288.493 78.035C288.37 78.035 288.245 78.01 288.126 77.957C286.375 77.172 284.525 76.632 282.628 76.351C282.136 76.279 281.797 75.821 281.87 75.33C281.943 74.839 282.395 74.489 282.891 74.573C284.952 74.877 286.96 75.464 288.862 76.316C289.315 76.519 289.517 77.051 289.315 77.504C289.164 77.837 288.836 78.035 288.493 78.035ZM222.903 76.776C222.5 76.776 222.134 76.503 222.032 76.095C221.912 75.613 222.204 75.125 222.686 75.005C224.489 74.555 226.356 74.326 228.234 74.326H228.84C229.336 74.326 229.739 74.729 229.739 75.225C229.739 75.721 229.336 76.124 228.84 76.124H228.234C226.503 76.124 224.783 76.334 223.121 76.749C223.049 76.767 222.975 76.776 222.903 76.776ZM276.778 76.124H270.786C270.29 76.124 269.887 75.721 269.887 75.225C269.887 74.729 270.29 74.326 270.786 74.326H276.778C277.274 74.326 277.677 74.729 277.677 75.225C277.677 75.721 277.274 76.124 276.778 76.124ZM264.794 76.124H258.802C258.306 76.124 257.903 75.721 257.903 75.225C257.903 74.729 258.306 74.326 258.802 74.326H264.794C265.29 74.326 265.693 74.729 265.693 75.225C265.692 75.721 265.29 76.124 264.794 76.124ZM252.809 76.124H246.817C246.321 76.124 245.918 75.721 245.918 75.225C245.918 74.729 246.321 74.326 246.817 74.326H252.809C253.305 74.326 253.708 74.729 253.708 75.225C253.708 75.721 253.306 76.124 252.809 76.124ZM240.825 76.124H234.833C234.337 76.124 233.934 75.721 233.934 75.225C233.934 74.729 234.337 74.326 234.833 74.326H240.825C241.321 74.326 241.724 74.729 241.724 75.225C241.724 75.721 241.322 76.124 240.825 76.124Z" fill="#B19CFE"/>
<path d="M253.877 78.602C255.742 78.602 257.254 77.0901 257.254 75.225C257.254 73.3599 255.742 71.848 253.877 71.848C252.012 71.848 250.5 73.3599 250.5 75.225C250.5 77.0901 252.012 78.602 253.877 78.602Z" fill="#B19CFE"/>
<path d="M253.878 81.554C250.388 81.554 247.549 78.715 247.549 75.225C247.549 71.735 250.389 68.896 253.878 68.896C257.368 68.896 260.207 71.735 260.207 75.225C260.207 78.715 257.368 81.554 253.878 81.554ZM253.878 69.671C250.815 69.671 248.324 72.163 248.324 75.225C248.324 78.288 250.816 80.779 253.878 80.779C256.941 80.779 259.432 78.287 259.432 75.225C259.432 72.163 256.941 69.671 253.878 69.671Z" fill="#B19CFE"/>
<path d="M257.913 123.914H199.959V133.822H257.913V123.914Z" fill="#C1C1C1"/>
<path d="M304.734 120.185H263.307C260.292 120.185 257.432 121.197 255.494 122.95L244.24 131.371H199.905C198.052 131.371 196.549 132.874 196.549 134.727V196.09C196.549 197.943 198.052 199.446 199.905 199.446H307.93C309.783 199.446 311.286 197.944 311.286 196.09V136.804V134.727V127.643C311.286 123.701 308.353 120.185 304.734 120.185Z" fill="#FFC655"/>
<path d="M133.517 305.616L127.373 311.572C127.169 311.77 126.99 311.985 126.828 312.208C122.741 309.528 118.278 307.647 113.659 306.567C113.711 306.289 113.748 306.007 113.751 305.719L113.843 297.162C113.871 294.5 111.729 292.31 109.066 292.282L100.509 292.19C97.8483 292.162 95.6573 294.304 95.6293 296.967L95.5373 305.524C95.5343 305.812 95.5653 306.094 95.6103 306.372C91.0933 307.326 86.7073 309.043 82.6533 311.525C82.4983 311.297 82.3263 311.077 82.1283 310.873L76.1723 304.729C74.3183 302.817 71.2553 302.769 69.3433 304.623L63.1993 310.579C61.2873 312.433 61.2403 315.496 63.0933 317.408L69.0493 323.552C69.2473 323.756 69.4623 323.935 69.6843 324.097C67.0043 328.184 65.1233 332.647 64.0433 337.266C63.7663 337.214 63.4843 337.177 63.1953 337.174L54.6383 337.082C53.3563 337.068 52.1453 337.551 51.2253 338.443C51.2193 338.448 51.2143 338.454 51.2093 338.46C50.2873 339.362 49.7723 340.57 49.7583 341.859L49.6663 350.416C49.6383 353.078 51.7803 355.268 54.4433 355.296L63.0003 355.388C63.2903 355.391 63.5703 355.358 63.8473 355.312C64.8013 359.83 66.5183 364.217 69.0013 368.271C68.7733 368.426 68.5533 368.598 68.3493 368.796L62.2053 374.752C60.2933 376.606 60.2463 379.669 62.0993 381.58L68.0553 387.724C69.9093 389.636 72.9723 389.683 74.8843 387.83L81.0283 381.874C81.2323 381.676 81.4113 381.461 81.5733 381.239C85.6613 383.919 90.1253 385.8 94.7453 386.88C94.6933 387.156 94.6533 387.437 94.6503 387.727L94.5583 396.284C94.5443 397.574 95.0333 398.792 95.9363 399.714C96.8383 400.636 98.0463 401.151 99.3353 401.165L107.892 401.257C109.215 401.271 110.421 400.749 111.303 399.894C112.196 399.028 112.758 397.82 112.772 396.481L112.864 387.924C112.867 387.634 112.834 387.354 112.788 387.077C117.306 386.123 121.693 384.406 125.748 381.923C125.903 382.151 126.075 382.371 126.273 382.575L132.229 388.719C134.083 390.631 137.146 390.678 139.058 388.825L145.202 382.869C147.114 381.015 147.161 377.952 145.308 376.04L139.352 369.896C139.154 369.692 138.939 369.513 138.716 369.351C141.396 365.263 143.277 360.8 144.357 356.179C144.633 356.231 144.914 356.271 145.204 356.274L153.761 356.366C155.084 356.38 156.29 355.858 157.173 355.003C158.066 354.137 158.628 352.929 158.642 351.59L158.735 343.033C158.763 340.37 156.62 338.181 153.958 338.152L145.401 338.06C145.113 338.057 144.831 338.087 144.553 338.133C143.599 333.616 141.882 329.23 139.4 325.176C139.628 325.021 139.848 324.849 140.052 324.651L146.196 318.695C148.108 316.841 148.155 313.778 146.302 311.867L140.346 305.723C138.491 303.81 135.428 303.762 133.517 305.616ZM119.987 363.006C111.008 371.711 96.6223 371.488 87.9173 362.51C79.2123 353.531 79.4353 339.145 88.4143 330.44C97.3933 321.735 111.779 321.958 120.484 330.937C129.188 339.915 128.965 354.301 119.987 363.006Z" stroke="#0F1B63" stroke-miterlimit="10"/>
<path d="M296.485 375.757H204.514V419.845H296.485V375.757Z" fill="#C60C88"/>
<path d="M403.279 167.604V368.446C403.279 374.897 398.05 380.126 391.59 380.126H109.406C102.955 380.126 97.7168 374.897 97.7168 368.446V167.604C97.7168 161.153 102.955 155.915 109.406 155.915H391.59C398.05 155.915 403.279 161.153 403.279 167.604Z" fill="#D42190"/>
<path opacity="0.5" d="M256 366C256 369.314 253.314 372 250 372C246.686 372 244 369.314 244 366C244 362.686 246.686 360 250 360C253.314 360 256 362.686 256 366Z" fill="white"/>
<path d="M399.61 352.765V169.854C399.61 164.31 395.27 159.816 389.917 159.816H111.082C105.729 159.816 101.389 164.31 101.389 169.854V352.765H399.61Z" fill="#DED7FF"/>
<path d="M314.579 424.595H186.416V424.288C186.416 419.21 190.533 415.094 195.61 415.094H305.384C310.462 415.094 314.578 419.21 314.578 424.288V424.595H314.579Z" fill="#D42190"/>
<path d="M125.433 157.939C125.433 149.086 118.759 141.801 110.17 140.817C110.236 140.238 110.278 139.652 110.278 139.056C110.278 130.568 103.397 123.688 94.9095 123.688C92.6355 123.688 90.4845 124.195 88.5425 125.081C84.4505 118.702 77.3025 114.472 69.1605 114.472C56.4485 114.472 46.1435 124.777 46.1435 137.489C46.1435 138.608 46.2275 139.708 46.3825 140.784C37.6835 141.664 30.8945 149.009 30.8945 157.94C30.8945 167.464 38.6155 175.185 48.1395 175.185H109.043V175.142C118.167 174.692 125.433 167.174 125.433 157.939Z" fill="#B19CFE"/>
<path d="M89.2079 188.343V161.549H67.1179V188.343H60.2129L78.1629 205.16L96.1139 188.343H89.2079Z" fill="#FFC655"/>
<path d="M333.236 170.609H278.999C273.984 170.609 269.918 166.543 269.918 161.528V143.49C269.918 138.475 273.984 134.409 278.999 134.409H333.236C338.251 134.409 342.317 138.475 342.317 143.49V161.527C342.317 166.543 338.251 170.609 333.236 170.609Z" fill="#542FD0"/>
<path d="M130.776 431.104H76.54C71.525 431.104 67.459 427.038 67.459 422.023V403.986C67.459 398.971 71.525 394.905 76.54 394.905H130.777C135.792 394.905 139.858 398.971 139.858 403.986V422.023C139.858 427.038 135.792 431.104 130.776 431.104Z" fill="#542FD0"/>
<path d="M156.857 277.965H102.62C97.6051 277.965 93.5391 273.899 93.5391 268.884V250.847C93.5391 245.832 97.6051 241.766 102.62 241.766H156.857C161.872 241.766 165.938 245.832 165.938 250.847V268.884C165.938 273.899 161.872 277.965 156.857 277.965Z" fill="#542FD0"/>
<path d="M347.967 393.867H345.384C344.956 393.867 344.609 393.52 344.609 393.092C344.609 392.664 344.956 392.317 345.384 392.317H347.967C348.395 392.317 348.742 392.664 348.742 393.092C348.742 393.52 348.395 393.867 347.967 393.867Z" fill="#B19CFE"/>
<path d="M409.979 393.867H404.811C404.383 393.867 404.036 393.52 404.036 393.092C404.036 392.664 404.383 392.317 404.811 392.317H409.979C410.407 392.317 410.754 392.664 410.754 393.092C410.754 393.52 410.407 393.867 409.979 393.867ZM399.643 393.867H394.476C394.048 393.867 393.701 393.52 393.701 393.092C393.701 392.664 394.048 392.317 394.476 392.317H399.643C400.071 392.317 400.418 392.664 400.418 393.092C400.418 393.52 400.071 393.867 399.643 393.867ZM389.308 393.867H384.14C383.712 393.867 383.365 393.52 383.365 393.092C383.365 392.664 383.712 392.317 384.14 392.317H389.308C389.736 392.317 390.083 392.664 390.083 393.092C390.083 393.52 389.736 393.867 389.308 393.867ZM378.972 393.867H373.804C373.376 393.867 373.029 393.52 373.029 393.092C373.029 392.664 373.376 392.317 373.804 392.317H378.972C379.4 392.317 379.747 392.664 379.747 393.092C379.748 393.52 379.4 393.867 378.972 393.867ZM368.637 393.867H363.47C363.042 393.867 362.695 393.52 362.695 393.092C362.695 392.664 363.042 392.317 363.47 392.317H368.637C369.065 392.317 369.412 392.664 369.412 393.092C369.412 393.52 369.065 393.867 368.637 393.867ZM358.302 393.867H353.134C352.706 393.867 352.359 393.52 352.359 393.092C352.359 392.664 352.706 392.317 353.134 392.317H358.302C358.73 392.317 359.077 392.664 359.077 393.092C359.077 393.52 358.73 393.867 358.302 393.867ZM415.096 393.266C414.747 393.266 414.43 393.028 414.344 392.673C414.243 392.257 414.498 391.838 414.914 391.737C416.528 391.346 418.093 390.759 419.564 389.991C419.944 389.793 420.412 389.94 420.609 390.32C420.807 390.699 420.66 391.167 420.28 391.365C418.697 392.191 417.014 392.823 415.279 393.243C415.218 393.259 415.157 393.266 415.096 393.266ZM424.174 388.54C423.959 388.54 423.745 388.451 423.592 388.277C423.309 387.956 423.341 387.466 423.663 387.183C424.911 386.086 426.026 384.84 426.977 383.48C427.221 383.129 427.704 383.043 428.056 383.289C428.407 383.534 428.492 384.018 428.247 384.368C427.226 385.829 426.028 387.168 424.687 388.347C424.539 388.476 424.356 388.54 424.174 388.54ZM430.033 380.152C429.94 380.152 429.845 380.135 429.754 380.1C429.355 379.946 429.156 379.497 429.311 379.098C429.909 377.55 430.317 375.93 430.524 374.283C430.577 373.858 430.951 373.556 431.39 373.611C431.815 373.664 432.116 374.052 432.062 374.477C431.839 376.249 431.4 377.991 430.756 379.657C430.638 379.964 430.344 380.152 430.033 380.152ZM431.463 369.996C431.035 369.996 430.688 369.649 430.688 369.221V364.053C430.688 363.625 431.035 363.278 431.463 363.278C431.891 363.278 432.238 363.625 432.238 364.053V369.221C432.239 369.649 431.891 369.996 431.463 369.996ZM431.463 359.66C431.035 359.66 430.688 359.313 430.688 358.885V353.718C430.688 353.29 431.035 352.943 431.463 352.943C431.891 352.943 432.238 353.29 432.238 353.718V358.885C432.239 359.313 431.891 359.66 431.463 359.66ZM431.463 349.325C431.035 349.325 430.688 348.978 430.688 348.55V343.383C430.688 342.955 431.035 342.608 431.463 342.608C431.891 342.608 432.238 342.955 432.238 343.383V348.55C432.239 348.978 431.891 349.325 431.463 349.325ZM431.463 338.99C431.035 338.99 430.688 338.643 430.688 338.215V333.047C430.688 332.619 431.035 332.272 431.463 332.272C431.891 332.272 432.238 332.619 432.238 333.047V338.215C432.239 338.642 431.891 338.99 431.463 338.99ZM431.463 328.655C431.035 328.655 430.688 328.308 430.688 327.88V322.712C430.688 322.284 431.035 321.937 431.463 321.937C431.891 321.937 432.238 322.284 432.238 322.712V327.88C432.239 328.307 431.891 328.655 431.463 328.655ZM431.463 318.319C431.035 318.319 430.688 317.972 430.688 317.544V312.377C430.688 311.949 431.035 311.602 431.463 311.602C431.891 311.602 432.238 311.949 432.238 312.377V317.544C432.239 317.972 431.891 318.319 431.463 318.319ZM431.463 307.983C431.035 307.983 430.688 307.636 430.688 307.208V302.04C430.688 301.612 431.035 301.265 431.463 301.265C431.891 301.265 432.238 301.612 432.238 302.04V307.208C432.239 307.636 431.891 307.983 431.463 307.983Z" fill="#B19CFE"/>
<path d="M431.464 297.625C431.036 297.625 430.689 297.278 430.689 296.85V295.042H430.039C429.611 295.042 429.264 294.695 429.264 294.267C429.264 293.839 429.611 293.492 430.039 293.492H431.464C431.892 293.492 432.239 293.839 432.239 294.267V296.85C432.24 297.278 431.892 297.625 431.464 297.625Z" fill="#B19CFE"/>
<path d="M407.412 215.995H339.607C335.531 215.995 332.227 219.299 332.227 223.375V364.284C332.227 368.36 335.531 371.664 339.607 371.664H407.412C411.488 371.664 414.792 368.36 414.792 364.284V223.375C414.792 219.299 411.488 215.995 407.412 215.995Z" fill="#B19CFE"/>
<path d="M388.67 224.115H351.373C350.726 224.115 350.201 223.59 350.201 222.943V222.792C350.201 222.145 350.726 221.62 351.373 221.62H388.67C389.317 221.62 389.842 222.145 389.842 222.792V222.943C389.842 223.59 389.317 224.115 388.67 224.115Z" fill="#0F1B63"/>
<path d="M396.816 222.867C396.816 223.556 396.257 224.115 395.568 224.115C394.879 224.115 394.32 223.556 394.32 222.867C394.32 222.178 394.879 221.619 395.568 221.619C396.257 221.619 396.816 222.178 396.816 222.867Z" fill="#0F1B63"/>
<path d="M410.246 230.131H336.771V275.28H410.246V230.131Z" fill="white"/>
<path d="M387.448 248.997L382.061 255.441L368.122 238.766L344.816 266.645H372.695H391.426H402.201L387.448 248.997Z" fill="#FFC655"/>
<path d="M371.46 335.083H336.771V355.429H371.46V335.083Z" fill="white"/>
<path d="M360.698 342.99L358.154 346.032L351.573 338.159L340.57 351.322H353.732H362.576H367.663L360.698 342.99Z" fill="#FFC655"/>
<path d="M371.46 286.893H336.771V288.842H371.46V286.893Z" fill="#B19CFE"/>
<path d="M371.46 282.809H336.771V284.758H371.46V282.809Z" fill="#B19CFE"/>
<path d="M358.705 290.883H336.771V292.832H358.705V290.883Z" fill="#B19CFE"/>
<path d="M371.459 290.883H360.264V292.832H371.459V290.883Z" fill="#B19CFE"/>
<path d="M367.461 294.868H336.771V296.817H367.461V294.868Z" fill="#B19CFE"/>
<path d="M347.43 298.962H336.771V300.911H347.43V298.962Z" fill="#B19CFE"/>
<path d="M356.947 298.962H349.27V300.911H356.947V298.962Z" fill="#B19CFE"/>
<path d="M410.246 314.188H375.557V316.137H410.246V314.188Z" fill="#B19CFE"/>
<path d="M410.246 310.103H375.557V312.052H410.246V310.103Z" fill="#B19CFE"/>
<path d="M397.491 318.177H375.557V320.126H397.491V318.177Z" fill="#B19CFE"/>
<path d="M410.244 318.177H399.049V320.126H410.244V318.177Z" fill="#B19CFE"/>
<path d="M406.247 322.162H375.557V324.111H406.247V322.162Z" fill="#B19CFE"/>
<path d="M386.216 326.256H375.557V328.205H386.216V326.256Z" fill="#B19CFE"/>
<path d="M395.732 326.256H388.055V328.205H395.732V326.256Z" fill="#B19CFE"/>
<path d="M410.246 286.893H375.557V288.842H410.246V286.893Z" fill="#B19CFE"/>
<path d="M410.246 282.809H375.557V284.758H410.246V282.809Z" fill="#B19CFE"/>
<path d="M397.491 290.883H375.557V292.832H397.491V290.883Z" fill="#B19CFE"/>
<path d="M410.244 290.883H399.049V292.832H410.244V290.883Z" fill="#B19CFE"/>
<path d="M410.246 294.868H375.557V296.817H410.246V294.868Z" fill="#B19CFE"/>
<path d="M386.216 298.962H375.557V300.911H386.216V298.962Z" fill="#B19CFE"/>
<path d="M410.246 298.962H388.055V300.911H410.246V298.962Z" fill="#B19CFE"/>
<path d="M371.46 314.188H336.771V316.137H371.46V314.188Z" fill="#B19CFE"/>
<path d="M371.46 310.103H336.771V312.052H371.46V310.103Z" fill="#B19CFE"/>
<path d="M371.46 318.177H336.771V320.126H371.46V318.177Z" fill="#B19CFE"/>
<path d="M371.46 322.162H336.771V324.111H371.46V322.162Z" fill="#B19CFE"/>
<path d="M371.46 326.256H336.771V328.205H371.46V326.256Z" fill="#B19CFE"/>
<path d="M410.246 339.833H375.557V341.782H410.246V339.833Z" fill="#B19CFE"/>
<path d="M410.246 335.749H375.557V337.698H410.246V335.749Z" fill="#B19CFE"/>
<path d="M410.245 343.822H388.311V345.771H410.245V343.822Z" fill="#B19CFE"/>
<path d="M386.752 343.822H375.557V345.771H386.752V343.822Z" fill="#B19CFE"/>
<path d="M402.193 347.807H375.557V349.756H402.193V347.807Z" fill="#B19CFE"/>
<path d="M410.245 347.807H404.043V349.756H410.245V347.807Z" fill="#B19CFE"/>
<path d="M410.246 351.901H384.658V353.85H410.246V351.901Z" fill="#B19CFE"/>
<path d="M383.234 351.901H375.557V353.85H383.234V351.901Z" fill="#B19CFE"/>
<path d="M348.654 407.864H294.417C289.402 407.864 285.336 403.798 285.336 398.783V380.746C285.336 375.731 289.402 371.665 294.417 371.665H348.654C353.669 371.665 357.735 375.731 357.735 380.746V398.783C357.735 403.798 353.669 407.864 348.654 407.864Z" fill="#542FD0"/>
<path d="M434.258 347.825C434.258 349.69 432.746 351.202 430.881 351.202C429.016 351.202 427.504 349.69 427.504 347.825C427.504 345.96 429.016 344.448 430.881 344.448C432.746 344.448 434.258 345.96 434.258 347.825Z" fill="#B19CFE"/>
<path d="M430.88 354.154C427.39 354.154 424.551 351.315 424.551 347.825C424.551 344.335 427.391 341.496 430.88 341.496C434.37 341.496 437.209 344.335 437.209 347.825C437.21 351.315 434.37 354.154 430.88 354.154ZM430.88 342.27C427.817 342.27 425.326 344.762 425.326 347.824C425.326 350.886 427.818 353.378 430.88 353.378C433.943 353.378 436.434 350.886 436.434 347.824C436.434 344.762 433.943 342.27 430.88 342.27Z" fill="#B19CFE"/>
<path d="M460.025 298.274H405.788C400.773 298.274 396.707 294.208 396.707 289.193V271.156C396.707 266.141 400.773 262.075 405.788 262.075H460.025C465.04 262.075 469.106 266.141 469.106 271.156V289.193C469.106 294.208 465.04 298.274 460.025 298.274Z" fill="#542FD0"/>
<path d="M265.306 304.901H242.525V306.968H265.306V304.901Z" fill="#0F1B63"/>
<path d="M323.907 304.901H271.15V306.968H323.907V304.901Z" fill="#0F1B63"/>
<path d="M296.869 322.686C287.813 322.686 278.737 322.675 269.703 322.653L269.707 320.586C287.773 320.629 306.007 320.629 323.905 320.586L323.91 322.653C314.96 322.675 305.925 322.686 296.869 322.686Z" fill="#0F1B63"/>
<path d="M323.907 312.744H261.402V314.811H323.907V312.744Z" fill="#0F1B63"/>
<path d="M323.908 328.462H258.002V330.529H323.908V328.462Z" fill="#0F1B63"/>
<path d="M323.908 336.305H248.861V338.372H323.908V336.305Z" fill="#0F1B63"/>
<path d="M154.687 186.717H119.402V188.784H154.687V186.717Z" fill="#B19CFE"/>
<path d="M236.697 186.717H200.285V188.784H236.697V186.717Z" fill="#B19CFE"/>
<path d="M236.697 194.56H211.439V196.627H236.697V194.56Z" fill="#FFC655"/>
<path d="M236.697 210.279H201.049V212.346H236.697V210.279Z" fill="#FFC655"/>
<path d="M236.696 218.121H194.066V220.188H236.696V218.121Z" fill="#FFC655"/>
<path d="M236.696 227.291H181.861V229.358H236.696V227.291Z" fill="#FFC655"/>
<path d="M195.691 186.717H160.406V188.784H195.691V186.717Z" fill="#FFC655"/>
<path d="M208.213 204.502C202.823 204.502 197.414 204.494 186.596 204.479L179.562 204.469L179.564 202.402L186.599 202.412C208.231 202.442 208.233 202.442 229.712 202.412L236.698 202.402V204.469L229.715 204.479C218.974 204.495 213.603 204.502 208.213 204.502Z" fill="#FFC655"/>
<path d="M146.441 204.502C137.385 204.502 128.35 204.491 119.4 204.47L119.404 202.403C137.302 202.446 155.538 202.446 173.604 202.403L173.608 204.47C164.573 204.492 155.496 204.502 146.441 204.502Z" fill="#B19CFE"/>
<path d="M206.427 194.56H119.402V196.627H206.427V194.56Z" fill="#B19CFE"/>
<path d="M177.03 227.291H119.402V229.358H177.03V227.291Z" fill="#B19CFE"/>
<path d="M196.548 210.279H119.402V212.346H196.548V210.279Z" fill="#B19CFE"/>
<path d="M189.319 218.121H119.402V220.188H189.319V218.121Z" fill="#B19CFE"/>
<path d="M112.017 189.176C112.804 189.176 113.442 188.538 113.442 187.751C113.442 186.964 112.804 186.326 112.017 186.326C111.23 186.326 110.592 186.964 110.592 187.751C110.592 188.538 111.23 189.176 112.017 189.176Z" fill="#D42190"/>
<path d="M113.442 195.594C113.442 196.381 112.804 197.019 112.017 197.019C111.23 197.019 110.592 196.381 110.592 195.594C110.592 194.807 111.23 194.169 112.017 194.169C112.804 194.168 113.442 194.806 113.442 195.594Z" fill="#D42190"/>
<path d="M112.017 204.861C112.804 204.861 113.442 204.223 113.442 203.436C113.442 202.649 112.804 202.011 112.017 202.011C111.23 202.011 110.592 202.649 110.592 203.436C110.592 204.223 111.23 204.861 112.017 204.861Z" fill="#D42190"/>
<path d="M113.442 211.279C113.442 212.066 112.804 212.704 112.017 212.704C111.23 212.704 110.592 212.066 110.592 211.279C110.592 210.492 111.23 209.854 112.017 209.854C112.804 209.854 113.442 210.492 113.442 211.279Z" fill="#D42190"/>
<path d="M112.017 220.58C112.804 220.58 113.442 219.942 113.442 219.155C113.442 218.368 112.804 217.73 112.017 217.73C111.23 217.73 110.592 218.368 110.592 219.155C110.592 219.942 111.23 220.58 112.017 220.58Z" fill="#D42190"/>
<path d="M113.442 228.324C113.442 229.111 112.804 229.749 112.017 229.749C111.23 229.749 110.592 229.111 110.592 228.324C110.592 227.537 111.23 226.899 112.017 226.899C112.804 226.899 113.442 227.537 113.442 228.324Z" fill="#D42190"/>
<path d="M246.103 232.997C245.817 232.997 245.586 232.766 245.586 232.48V186.59C245.586 186.304 245.817 186.073 246.103 186.073C246.389 186.073 246.62 186.304 246.62 186.59V232.481C246.619 232.766 246.388 232.997 246.103 232.997Z" fill="#D42190"/>
<path d="M158.137 331.986H154.96C154.667 331.986 154.431 331.749 154.431 331.457C154.431 331.164 154.668 330.928 154.96 330.928H158.137C158.43 330.928 158.666 331.165 158.666 331.457C158.667 331.749 158.43 331.986 158.137 331.986ZM151.784 331.986H148.608C148.315 331.986 148.079 331.749 148.079 331.457C148.079 331.164 148.316 330.928 148.608 330.928H151.784C152.077 330.928 152.313 331.165 152.313 331.457C152.314 331.749 152.077 331.986 151.784 331.986ZM145.431 331.986H144.145C143.422 331.986 142.707 331.801 142.078 331.452C141.821 331.31 141.73 330.988 141.871 330.732C142.014 330.475 142.339 330.385 142.591 330.526C143.064 330.788 143.601 330.927 144.145 330.927H145.431C145.724 330.927 145.96 331.164 145.96 331.456C145.961 331.749 145.724 331.986 145.431 331.986ZM140.493 329.048C140.25 329.048 140.031 328.879 139.977 328.631C139.912 328.332 139.879 328.025 139.879 327.72V325.349C139.879 325.056 140.116 324.82 140.408 324.82C140.7 324.82 140.937 325.057 140.937 325.349V327.72C140.937 327.949 140.962 328.181 141.011 328.407C141.073 328.693 140.892 328.975 140.607 329.037C140.568 329.044 140.53 329.048 140.493 329.048ZM140.408 322.702C140.115 322.702 139.879 322.465 139.879 322.173V318.996C139.879 318.703 140.116 318.467 140.408 318.467C140.7 318.467 140.937 318.704 140.937 318.996V322.173C140.937 322.465 140.701 322.702 140.408 322.702ZM140.408 316.349C140.115 316.349 139.879 316.112 139.879 315.819V312.642C139.879 312.349 140.116 312.113 140.408 312.113C140.7 312.113 140.937 312.35 140.937 312.642V315.819C140.937 316.112 140.701 316.349 140.408 316.349ZM140.408 309.995C140.115 309.995 139.879 309.758 139.879 309.466V306.289C139.879 305.996 140.116 305.76 140.408 305.76C140.7 305.76 140.937 305.997 140.937 306.289V309.466C140.937 309.759 140.701 309.995 140.408 309.995ZM140.408 303.642C140.115 303.642 139.879 303.405 139.879 303.113V302.726C139.879 301.649 140.281 300.62 141.012 299.83C141.211 299.616 141.545 299.602 141.761 299.801C141.975 299.999 141.989 300.335 141.79 300.549C141.241 301.143 140.938 301.916 140.938 302.727V303.114C140.937 303.406 140.701 303.642 140.408 303.642ZM160.121 299.519H156.945C156.652 299.519 156.416 299.282 156.416 298.99C156.416 298.698 156.653 298.461 156.945 298.461H160.121C160.414 298.461 160.651 298.698 160.651 298.99C160.651 299.282 160.414 299.519 160.121 299.519ZM153.768 299.519H150.592C150.299 299.519 150.063 299.282 150.063 298.99C150.063 298.698 150.3 298.461 150.592 298.461H153.768C154.061 298.461 154.297 298.698 154.297 298.99C154.297 299.282 154.061 299.519 153.768 299.519ZM147.415 299.519H144.239C143.946 299.519 143.71 299.282 143.71 298.99C143.71 298.698 143.947 298.461 144.239 298.461H147.415C147.708 298.461 147.944 298.698 147.944 298.99C147.944 299.282 147.708 299.519 147.415 299.519Z" fill="#0F1B63"/>
<path d="M169.659 318.238H152.654V320.356H169.659V318.238Z" fill="#0F1B63"/>
<path d="M201.583 318.238H174.111V320.356H201.583V318.238Z" fill="#0F1B63"/>
<path d="M201.582 336.254H184.578V338.372H201.582V336.254Z" fill="#0F1B63"/>
<path d="M180.127 336.254H152.654V338.372H180.127V336.254Z" fill="#0F1B63"/>
<path d="M182.563 324.374H152.654V326.492H182.563V324.374Z" fill="#0F1B63"/>
<path d="M201.582 324.374H187.014V326.492H201.582V324.374Z" fill="#0F1B63"/>
<path d="M177.267 330.398H152.654V332.516H177.267V330.398Z" fill="#0F1B63"/>
<path d="M201.582 330.398H184.881V332.516H201.582V330.398Z" fill="#0F1B63"/>
<path d="M161.556 292.654H152.654V309.23H161.556V292.654Z" fill="#FFC655"/>
<path d="M175.523 286.361H166.621V309.229H175.523V286.361Z" fill="#D42190"/>
<path d="M189.029 273.315H180.127V309.229H189.029V273.315Z" fill="#542FD0"/>
<path d="M182.814 330.398H179.619V332.516H182.814V330.398Z" fill="#0F1B63"/>
<path d="M323.106 217.052H256.467V291.402H323.106V217.052Z" fill="#B19CFE"/>
<path d="M308.314 230.266H261.848V231.816H308.314V230.266Z" fill="white"/>
<path d="M285.031 243.098C277.051 243.098 269.086 243.09 261.846 243.072L261.85 241.522C276.328 241.558 293.699 241.558 308.312 241.522L308.316 243.072C301.007 243.09 293.011 243.098 285.031 243.098Z" fill="white"/>
<path d="M308.314 235.894H261.848V237.444H308.314V235.894Z" fill="white"/>
<path d="M295.722 247.176H261.848V248.726H295.722V247.176Z" fill="white"/>
<path d="M308.314 285.061H261.848V286.611H308.314V285.061Z" fill="white"/>
<path d="M308.312 275.356C293.697 275.321 276.327 275.321 261.85 275.356L261.846 273.806C276.327 273.772 293.7 273.772 308.316 273.806L308.312 275.356Z" fill="white"/>
<path d="M308.314 279.434H261.848V280.984H308.314V279.434Z" fill="white"/>
<path d="M295.722 268.152H261.848V269.702H295.722V268.152Z" fill="white"/>
<path d="M324.14 292.435H255.434V215.995H324.14V292.435ZM256.468 291.402H323.107V217.028H256.468V291.402Z" fill="#542FD0"/>
<path d="M323.624 216.511H255.951V225.417H323.624V216.511Z" fill="#542FD0"/>
<path d="M304.298 264.192C304.115 264.192 303.933 264.128 303.784 263.998L298.577 259.397C298.41 259.25 298.316 259.038 298.316 258.816C298.316 258.594 298.411 258.382 298.577 258.235L303.784 253.634C304.105 253.351 304.594 253.379 304.879 253.702C305.162 254.023 305.131 254.512 304.811 254.796L300.261 258.816L304.811 262.836C305.131 263.12 305.161 263.609 304.879 263.93C304.726 264.104 304.512 264.192 304.298 264.192Z" fill="white"/>
<path d="M312.331 264.192C312.117 264.192 311.903 264.104 311.75 263.93C311.467 263.609 311.498 263.12 311.818 262.836L316.368 258.816L311.818 254.796C311.498 254.512 311.468 254.023 311.75 253.702C312.034 253.381 312.523 253.352 312.845 253.634L318.052 258.235C318.219 258.382 318.313 258.594 318.313 258.816C318.313 259.038 318.218 259.249 318.052 259.397L312.845 263.998C312.697 264.128 312.514 264.192 312.331 264.192Z" fill="white"/>
<path d="M262.359 220.965L264.164 219.16C264.335 218.989 264.335 218.713 264.164 218.542C263.993 218.371 263.717 218.371 263.546 218.542L261.741 220.347L259.936 218.542C259.765 218.371 259.489 218.371 259.318 218.542C259.147 218.713 259.147 218.989 259.318 219.16L261.123 220.965L259.318 222.77C259.147 222.941 259.147 223.217 259.318 223.388C259.403 223.473 259.515 223.516 259.627 223.516C259.739 223.516 259.851 223.473 259.936 223.388L261.741 221.583L263.546 223.388C263.631 223.473 263.743 223.516 263.855 223.516C263.967 223.516 264.079 223.473 264.164 223.388C264.335 223.217 264.335 222.941 264.164 222.77L262.359 220.965Z" fill="white"/>
<path d="M270.101 223.516C268.694 223.516 267.549 222.371 267.549 220.965C267.549 219.558 268.694 218.414 270.101 218.414C271.508 218.414 272.652 219.559 272.652 220.965C272.652 222.372 271.508 223.516 270.101 223.516ZM270.101 219.23C269.145 219.23 268.367 220.008 268.367 220.964C268.367 221.92 269.145 222.698 270.101 222.698C271.057 222.698 271.835 221.92 271.835 220.964C271.835 220.008 271.057 219.23 270.101 219.23Z" fill="white"/>
<path d="M279.972 223.516H275.814C275.572 223.516 275.377 223.32 275.377 223.079C275.377 222.838 275.572 222.642 275.814 222.642H279.972C280.214 222.642 280.409 222.838 280.409 223.079C280.409 223.32 280.213 223.516 279.972 223.516Z" fill="white"/>
<path d="M235.172 116.956L229.154 118.86C228.954 118.923 228.765 119.006 228.585 119.1C226.772 115.984 224.448 113.271 221.757 111.035C221.883 110.869 222 110.695 222.097 110.506L224.98 104.891C225.877 103.144 225.185 100.993 223.438 100.095L217.823 97.212C216.076 96.316 213.924 97.007 213.027 98.754L210.144 104.369C210.047 104.558 209.974 104.754 209.913 104.952C206.618 104.091 203.158 103.778 199.664 104.079C199.637 103.878 199.596 103.676 199.533 103.476L197.629 97.458C197.037 95.585 195.031 94.543 193.158 95.136L187.14 97.04C185.267 97.632 184.226 99.638 184.818 101.511L186.722 107.529C186.785 107.729 186.868 107.918 186.962 108.098C183.846 109.911 181.133 112.235 178.897 114.926C178.731 114.8 178.557 114.683 178.368 114.586L172.753 111.703C171.912 111.271 170.953 111.19 170.052 111.475C170.047 111.477 170.041 111.478 170.036 111.481C169.13 111.772 168.392 112.399 167.957 113.245L165.074 118.86C164.177 120.607 164.869 122.758 166.616 123.656L172.231 126.539C172.421 126.637 172.617 126.707 172.815 126.768C171.954 130.063 171.64 133.524 171.941 137.018C171.74 137.045 171.538 137.086 171.338 137.149L165.32 139.053C163.447 139.645 162.406 141.651 162.998 143.524L164.902 149.542C165.494 151.415 167.5 152.456 169.373 151.864L175.391 149.96C175.591 149.897 175.78 149.814 175.96 149.72C177.773 152.837 180.098 155.55 182.79 157.787C182.665 157.952 182.546 158.124 182.448 158.314L179.565 163.929C179.13 164.775 179.051 165.741 179.342 166.646C179.633 167.552 180.26 168.29 181.106 168.724L186.721 171.607C187.589 172.053 188.557 172.106 189.421 171.832C190.296 171.555 191.065 170.943 191.516 170.064L194.399 164.449C194.497 164.259 194.567 164.063 194.628 163.865C197.923 164.726 201.384 165.039 204.879 164.739C204.906 164.94 204.947 165.142 205.01 165.343L206.914 171.361C207.506 173.234 209.512 174.275 211.385 173.683L217.403 171.779C219.276 171.187 220.317 169.181 219.725 167.308L217.821 161.29C217.758 161.09 217.675 160.901 217.581 160.721C220.698 158.908 223.411 156.583 225.648 153.891C225.813 154.017 225.985 154.135 226.176 154.233L231.791 157.116C232.659 157.562 233.627 157.615 234.492 157.342C235.367 157.065 236.136 156.453 236.587 155.574L239.471 149.959C240.368 148.212 239.676 146.06 237.929 145.163L232.314 142.28C232.125 142.183 231.929 142.11 231.73 142.048C232.59 138.753 232.904 135.293 232.603 131.8C232.804 131.773 233.006 131.732 233.207 131.669L239.225 129.765C241.098 129.173 242.139 127.167 241.547 125.295L239.643 119.277C239.05 117.406 237.045 116.364 235.172 116.956ZM207.317 150.359C198.522 153.141 189.103 148.249 186.321 139.454C183.539 130.659 188.431 121.24 197.226 118.458C206.021 115.676 215.439 120.568 218.221 129.363C221.003 138.159 216.111 147.577 207.317 150.359Z" fill="#0F1B63"/>
<path d="M227.572 256.675L226.109 260.257C226.06 260.376 226.025 260.497 225.999 260.619C223.82 260.251 221.63 260.283 219.521 260.674C219.492 260.55 219.456 260.426 219.405 260.306L217.889 256.746C217.417 255.638 216.133 255.121 215.025 255.592L211.465 257.107C210.358 257.578 209.84 258.864 210.311 259.971L211.827 263.531C211.878 263.651 211.942 263.762 212.011 263.869C210.314 265.084 208.809 266.592 207.581 268.356C207.476 268.29 207.365 268.23 207.245 268.181L203.663 266.718C202.548 266.263 201.271 266.799 200.816 267.914L199.353 271.496C198.898 272.611 199.434 273.888 200.549 274.343L204.131 275.806C204.25 275.855 204.371 275.89 204.493 275.916C204.125 278.095 204.157 280.285 204.548 282.394C204.424 282.423 204.3 282.459 204.18 282.51L200.62 284.026C200.086 284.253 199.673 284.673 199.454 285.209C199.453 285.212 199.451 285.216 199.45 285.219C199.232 285.76 199.238 286.354 199.466 286.89L200.982 290.45C201.454 291.557 202.739 292.075 203.846 291.604L207.406 290.088C207.526 290.037 207.637 289.972 207.743 289.903C208.958 291.601 210.466 293.106 212.231 294.334C212.165 294.439 212.105 294.551 212.056 294.67L210.593 298.252C210.138 299.367 210.674 300.644 211.789 301.099L215.371 302.562C216.486 303.017 217.763 302.481 218.218 301.366L219.681 297.784C219.73 297.665 219.765 297.544 219.791 297.422C221.97 297.79 224.161 297.758 226.27 297.366C226.299 297.49 226.333 297.613 226.385 297.734L227.901 301.294C228.129 301.831 228.553 302.246 229.094 302.464C229.635 302.682 230.229 302.676 230.765 302.448L234.325 300.932C234.875 300.698 235.28 300.263 235.49 299.748C235.703 299.227 235.716 298.625 235.479 298.068L233.964 294.508C233.913 294.387 233.848 294.277 233.778 294.171C235.476 292.956 236.981 291.448 238.209 289.683C238.315 289.749 238.426 289.809 238.545 289.858L242.127 291.321C243.242 291.776 244.519 291.24 244.974 290.125L246.437 286.543C246.892 285.428 246.356 284.151 245.241 283.696L241.659 282.233C241.54 282.184 241.419 282.149 241.297 282.123C241.665 279.944 241.633 277.753 241.241 275.644C241.365 275.615 241.488 275.581 241.609 275.529L245.169 274.013C245.719 273.779 246.124 273.343 246.334 272.829C246.547 272.308 246.56 271.706 246.322 271.149L244.807 267.588C244.335 266.48 243.05 265.963 241.943 266.434L238.383 267.95C238.263 268.001 238.152 268.065 238.045 268.134C236.83 266.437 235.322 264.932 233.558 263.704C233.624 263.599 233.684 263.487 233.733 263.368L235.196 259.786C235.651 258.671 235.115 257.394 234 256.939L230.418 255.476C229.304 255.023 228.027 255.56 227.572 256.675ZM232.39 282.898C230.252 288.133 224.254 290.653 219.019 288.516C213.784 286.378 211.264 280.38 213.401 275.145C215.539 269.91 221.537 267.39 226.772 269.528C232.007 271.665 234.527 277.663 232.39 282.898Z" fill="#B19CFE"/>
<path d="M203.848 238.489L201.944 240.418C201.881 240.482 201.826 240.551 201.776 240.623C200.463 239.803 199.037 239.238 197.566 238.929C197.581 238.841 197.59 238.751 197.589 238.66L197.559 235.95C197.549 235.107 196.855 234.428 196.012 234.438L193.301 234.469C192.458 234.479 191.779 235.172 191.789 236.016L191.82 238.726C191.821 238.817 191.833 238.906 191.849 238.994C190.425 239.328 189.048 239.902 187.782 240.717C187.731 240.646 187.676 240.578 187.611 240.514L185.682 238.61C185.082 238.018 184.111 238.024 183.519 238.624L181.615 240.553C181.023 241.153 181.029 242.124 181.629 242.716L183.558 244.62C183.622 244.683 183.691 244.738 183.763 244.788C182.943 246.101 182.378 247.528 182.069 248.998C181.981 248.983 181.891 248.974 181.8 248.975L179.09 249.006C178.684 249.011 178.304 249.172 178.019 249.461C178.017 249.463 178.015 249.464 178.014 249.466C177.728 249.758 177.574 250.144 177.578 250.553L177.609 253.263C177.619 254.106 178.313 254.785 179.156 254.775L181.867 254.744C181.959 254.743 182.047 254.731 182.135 254.714C182.469 256.138 183.043 257.515 183.858 258.782C183.787 258.833 183.719 258.889 183.655 258.953L181.751 260.882C181.159 261.482 181.165 262.453 181.765 263.045L183.694 264.949C184.294 265.541 185.265 265.535 185.857 264.935L187.761 263.006C187.824 262.942 187.879 262.873 187.929 262.801C189.242 263.621 190.669 264.186 192.14 264.495C192.125 264.583 192.115 264.672 192.116 264.764L192.147 267.474C192.152 267.883 192.315 268.265 192.607 268.551C192.899 268.837 193.285 268.991 193.694 268.987L196.405 268.957C196.824 268.952 197.202 268.778 197.476 268.501C197.753 268.221 197.922 267.834 197.917 267.41L197.886 264.7C197.885 264.608 197.872 264.52 197.856 264.432C199.28 264.098 200.657 263.524 201.924 262.709C201.975 262.78 202.031 262.849 202.095 262.912L204.024 264.816C204.624 265.409 205.595 265.402 206.187 264.802L208.091 262.873C208.683 262.273 208.677 261.302 208.077 260.71L206.148 258.806C206.084 258.743 206.015 258.688 205.943 258.638C206.763 257.325 207.328 255.898 207.638 254.427C207.726 254.442 207.815 254.452 207.907 254.451L210.617 254.42C211.036 254.415 211.415 254.242 211.688 253.964C211.965 253.683 212.134 253.297 212.129 252.873L212.099 250.162C212.089 249.319 211.395 248.64 210.552 248.65L207.842 248.681C207.751 248.682 207.662 248.694 207.574 248.71C207.24 247.286 206.666 245.909 205.851 244.643C205.922 244.592 205.991 244.536 206.054 244.472L207.958 242.543C208.55 241.943 208.544 240.972 207.944 240.38L206.015 238.476C205.411 237.883 204.441 237.889 203.848 238.489ZM199.965 256.758C197.182 259.578 192.625 259.608 189.805 256.825C186.985 254.042 186.955 249.485 189.738 246.665C192.52 243.846 197.078 243.816 199.898 246.598C202.717 249.382 202.747 253.939 199.965 256.758Z" stroke="#B19CFE" stroke-width="0.5" stroke-miterlimit="10"/>
<path d="M51.605 213.29H39.25V215.357H51.605V213.29Z" fill="#0F1B63"/>
<path d="M88.2249 213.29H56.7109V215.357H88.2249V213.29Z" fill="#0F1B63"/>
<path d="M88.2257 235.479H68.7188V237.546H88.2257V235.479Z" fill="#0F1B63"/>
<path d="M63.613 235.479H39.25V237.546H63.613V235.479Z" fill="#0F1B63"/>
<path d="M66.408 220.846H39.25V222.913H66.408V220.846Z" fill="#0F1B63"/>
<path d="M88.2257 220.846H71.5137V222.913H88.2257V220.846Z" fill="#0F1B63"/>
<path d="M60.332 228.266H39.25V230.333H60.332V228.266Z" fill="#0F1B63"/>
<path d="M88.2254 228.266H69.0664V230.333H88.2254V228.266Z" fill="#0F1B63"/>
<path d="M66.6943 228.266H63.0293V230.333H66.6943V228.266Z" fill="#0F1B63"/>
<path d="M377.234 406.848H364.879V408.915H377.234V406.848Z" fill="#0F1B63"/>
<path d="M413.854 406.848H382.34V408.915H413.854V406.848Z" fill="#0F1B63"/>
<path d="M413.853 429.037H394.346V431.104H413.853V429.037Z" fill="#0F1B63"/>
<path d="M389.241 429.037H364.879V431.104H389.241V429.037Z" fill="#0F1B63"/>
<path d="M392.036 414.405H364.879V416.472H392.036V414.405Z" fill="#0F1B63"/>
<path d="M413.853 414.405H397.141V416.472H413.853V414.405Z" fill="#0F1B63"/>
<path d="M385.961 421.824H364.879V423.891H385.961V421.824Z" fill="#0F1B63"/>
<path d="M413.852 421.824H394.693V423.891H413.852V421.824Z" fill="#0F1B63"/>
<path d="M392.323 421.824H388.658V423.891H392.323V421.824Z" fill="#0F1B63"/>
<path d="M405.94 151.791L401.088 152.83C400.927 152.865 400.773 152.915 400.625 152.975C399.44 150.401 397.824 148.104 395.885 146.152C395.996 146.032 396.101 145.904 396.191 145.763L398.868 141.585C399.701 140.285 399.321 138.55 398.021 137.717L393.843 135.04C392.543 134.208 390.808 134.587 389.975 135.888L387.298 140.066C387.208 140.206 387.136 140.354 387.073 140.505C384.559 139.585 381.875 139.08 379.118 139.054C379.112 138.894 379.095 138.734 379.061 138.572L378.022 133.72C377.699 132.21 376.208 131.245 374.698 131.568L369.846 132.607C368.336 132.93 367.371 134.422 367.694 135.932L368.733 140.784C368.768 140.945 368.818 141.099 368.878 141.247C366.304 142.432 364.007 144.048 362.055 145.986C361.935 145.875 361.807 145.77 361.667 145.68L357.489 143.003C356.863 142.602 356.119 142.467 355.393 142.622C355.389 142.623 355.384 142.624 355.38 142.625C354.649 142.785 354.025 143.22 353.621 143.85L350.944 148.028C350.112 149.328 350.491 151.063 351.792 151.896L355.97 154.573C356.112 154.664 356.26 154.734 356.41 154.796C355.49 157.31 354.985 159.995 354.958 162.752C354.799 162.758 354.638 162.775 354.476 162.809L349.624 163.848C348.114 164.171 347.149 165.662 347.472 167.173L348.511 172.025C348.834 173.535 350.325 174.5 351.835 174.177L356.687 173.138C356.848 173.103 357.002 173.053 357.15 172.993C358.335 175.568 359.951 177.865 361.891 179.817C361.78 179.937 361.675 180.062 361.584 180.204L358.907 184.382C358.503 185.012 358.369 185.761 358.529 186.492C358.689 187.223 359.124 187.847 359.754 188.25L363.932 190.927C364.578 191.341 365.331 191.455 366.028 191.306C366.733 191.155 367.381 190.734 367.8 190.08L370.477 185.902C370.568 185.761 370.638 185.612 370.7 185.462C373.214 186.382 375.899 186.887 378.656 186.914C378.662 187.074 378.679 187.235 378.714 187.396L379.753 192.248C380.076 193.758 381.567 194.723 383.077 194.4L387.929 193.361C389.439 193.038 390.404 191.547 390.081 190.037L389.042 185.185C389.007 185.024 388.957 184.87 388.897 184.722C391.472 183.537 393.769 181.921 395.721 179.981C395.841 180.092 395.967 180.197 396.108 180.288L400.286 182.965C400.932 183.379 401.686 183.493 402.383 183.344C403.088 183.193 403.736 182.772 404.155 182.118L406.832 177.94C407.665 176.64 407.284 174.905 405.985 174.072L401.807 171.395C401.667 171.305 401.518 171.233 401.368 171.17C402.288 168.656 402.793 165.972 402.819 163.216C402.979 163.21 403.14 163.193 403.301 163.159L408.153 162.12C409.663 161.797 410.628 160.306 410.305 158.796L409.266 153.944C408.941 152.433 407.45 151.468 405.94 151.791ZM381.641 175.844C374.55 177.362 367.546 172.829 366.028 165.738C364.51 158.647 369.043 151.643 376.134 150.125C383.225 148.607 390.229 153.14 391.747 160.231C393.265 167.322 388.731 174.326 381.641 175.844Z" fill="#0F1B63"/>
<path d="M287.752 153.173V151.752L299.186 145.929V148.201L290.415 152.427L290.486 152.285V152.64L290.415 152.498L299.186 156.724V158.997L287.752 153.173ZM310.055 140.531L304.196 162.299H302.278L308.138 140.531H310.055ZM324.577 153.173L313.142 158.997V156.724L321.914 152.498L321.843 152.64V152.285L321.914 152.427L313.142 148.201V145.929L324.577 151.752V153.173Z" fill="white"/>
<path d="M80.0201 412.333V418.239H78.5115V405.148H80.0201V409.955H80.1479C80.378 409.448 80.7232 409.045 81.1834 408.747C81.6479 408.444 82.2658 408.293 83.0371 408.293C83.7061 408.293 84.2921 408.427 84.7949 408.696C85.2978 408.96 85.6877 409.367 85.9647 409.917C86.2459 410.462 86.3865 411.157 86.3865 412.001V418.239H84.878V412.103C84.878 411.323 84.6756 410.72 84.2708 410.294C83.8702 409.863 83.3141 409.648 82.6025 409.648C82.1081 409.648 81.665 409.753 81.2729 409.961C80.8851 410.17 80.5783 410.475 80.3525 410.876C80.1309 411.276 80.0201 411.762 80.0201 412.333ZM93.4162 408.421V409.699H88.3281V408.421H93.4162ZM89.8111 406.069H91.3196V415.427C91.3196 415.853 91.3814 416.172 91.505 416.386C91.6328 416.594 91.7947 416.735 91.9908 416.807C92.1911 416.876 92.402 416.91 92.6236 416.91C92.7898 416.91 92.9261 416.901 93.0327 416.884C93.1392 416.863 93.2244 416.846 93.2884 416.833L93.5952 418.188C93.4929 418.226 93.3501 418.265 93.1669 418.303C92.9837 418.346 92.7514 418.367 92.4702 418.367C92.044 418.367 91.6264 418.275 91.2173 418.092C90.8125 417.909 90.4759 417.63 90.2074 417.255C89.9432 416.88 89.8111 416.407 89.8111 415.836V406.069ZM95.6854 418.239V408.421H97.1428V409.955H97.2706C97.4751 409.431 97.8054 409.024 98.2614 408.734C98.7173 408.44 99.2649 408.293 99.9041 408.293C100.552 408.293 101.091 408.44 101.521 408.734C101.956 409.024 102.295 409.431 102.538 409.955H102.64C102.891 409.448 103.268 409.045 103.771 408.747C104.274 408.444 104.877 408.293 105.58 408.293C106.458 408.293 107.176 408.568 107.734 409.118C108.293 409.663 108.572 410.513 108.572 411.668V418.239H107.063V411.668C107.063 410.944 106.865 410.426 106.469 410.115C106.072 409.804 105.606 409.648 105.069 409.648C104.379 409.648 103.844 409.857 103.464 410.275C103.085 410.688 102.896 411.212 102.896 411.847V418.239H101.362V411.515C101.362 410.957 101.18 410.507 100.818 410.166C100.456 409.821 99.9893 409.648 99.4183 409.648C99.0263 409.648 98.6598 409.753 98.3189 409.961C97.9822 410.17 97.7095 410.46 97.5007 410.831C97.2962 411.197 97.1939 411.621 97.1939 412.103V418.239H95.6854ZM112.838 405.148V418.239H111.33V405.148H112.838Z" fill="white"/>
<path d="M120.894 255.118H122.511V266.409C122.511 267.058 122.399 267.62 122.175 268.095C121.956 268.57 121.623 268.938 121.175 269.198C120.732 269.458 120.172 269.589 119.496 269.589C119.441 269.589 119.387 269.589 119.332 269.589C119.277 269.589 119.222 269.589 119.167 269.589V268.081C119.222 268.081 119.272 268.081 119.318 268.081C119.364 268.081 119.414 268.081 119.469 268.081C119.962 268.081 120.323 267.935 120.551 267.643C120.78 267.355 120.894 266.944 120.894 266.409V255.118ZM121.689 253.364C121.374 253.364 121.102 253.256 120.873 253.041C120.65 252.827 120.538 252.569 120.538 252.267C120.538 251.966 120.65 251.708 120.873 251.493C121.102 251.278 121.374 251.171 121.689 251.171C122.004 251.171 122.274 251.278 122.497 251.493C122.726 251.708 122.84 251.966 122.84 252.267C122.84 252.569 122.726 252.827 122.497 253.041C122.274 253.256 122.004 253.364 121.689 253.364ZM132.927 257.475L131.475 257.886C131.384 257.644 131.249 257.408 131.071 257.18C130.897 256.947 130.66 256.755 130.358 256.604C130.057 256.454 129.671 256.378 129.2 256.378C128.556 256.378 128.019 256.527 127.59 256.824C127.165 257.116 126.953 257.488 126.953 257.941C126.953 258.342 127.099 258.66 127.391 258.893C127.684 259.126 128.14 259.32 128.762 259.475L130.324 259.859C131.265 260.087 131.966 260.437 132.427 260.907C132.889 261.373 133.119 261.974 133.119 262.709C133.119 263.312 132.946 263.851 132.599 264.326C132.256 264.801 131.776 265.176 131.16 265.45C130.543 265.724 129.826 265.861 129.008 265.861C127.935 265.861 127.046 265.628 126.343 265.162C125.639 264.696 125.194 264.016 125.007 263.12L126.542 262.737C126.688 263.303 126.964 263.728 127.371 264.011C127.782 264.294 128.319 264.436 128.981 264.436C129.735 264.436 130.333 264.276 130.776 263.956C131.224 263.632 131.447 263.244 131.447 262.792C131.447 262.426 131.32 262.12 131.064 261.873C130.808 261.622 130.415 261.435 129.885 261.312L128.131 260.9C127.167 260.672 126.459 260.318 126.007 259.838C125.56 259.354 125.336 258.749 125.336 258.023C125.336 257.429 125.502 256.904 125.836 256.447C126.174 255.99 126.633 255.631 127.213 255.371C127.798 255.111 128.46 254.981 129.2 254.981C130.242 254.981 131.059 255.209 131.653 255.666C132.251 256.123 132.676 256.725 132.927 257.475Z" fill="white"/>
<path d="M307.497 395.751C306.252 395.751 305.18 395.457 304.281 394.869C303.381 394.281 302.69 393.471 302.206 392.439C301.721 391.407 301.479 390.229 301.479 388.903C301.479 387.554 301.727 386.364 302.223 385.332C302.724 384.295 303.422 383.485 304.315 382.903C305.214 382.315 306.263 382.021 307.462 382.021C308.396 382.021 309.237 382.194 309.987 382.54C310.736 382.886 311.35 383.37 311.828 383.992C312.307 384.615 312.604 385.341 312.719 386.171H310.678C310.523 385.566 310.177 385.03 309.641 384.563C309.111 384.09 308.396 383.854 307.497 383.854C306.701 383.854 306.004 384.062 305.405 384.476C304.811 384.886 304.347 385.465 304.013 386.214C303.684 386.958 303.52 387.831 303.52 388.834C303.52 389.86 303.681 390.753 304.004 391.514C304.332 392.275 304.794 392.866 305.387 393.287C305.987 393.707 306.69 393.918 307.497 393.918C308.027 393.918 308.508 393.825 308.941 393.641C309.373 393.457 309.739 393.191 310.039 392.846C310.338 392.5 310.552 392.085 310.678 391.601H312.719C312.604 392.384 312.318 393.091 311.863 393.719C311.413 394.341 310.817 394.837 310.073 395.206C309.335 395.569 308.477 395.751 307.497 395.751ZM320.889 394.263V382.851H322.826V394.263H320.889ZM316.151 389.526V387.589H327.564V389.526H316.151ZM336.938 394.263V382.851H338.874V394.263H336.938ZM332.2 389.526V387.589H343.612V389.526H332.2Z" fill="white"/>
<path d="M409.955 276.026H411.486V286.713C411.486 287.326 411.38 287.858 411.168 288.308C410.96 288.757 410.645 289.105 410.221 289.352C409.802 289.598 409.272 289.721 408.632 289.721C408.581 289.721 408.529 289.721 408.477 289.721C408.425 289.721 408.373 289.721 408.321 289.721V288.295C408.373 288.295 408.421 288.295 408.464 288.295C408.507 288.295 408.555 288.295 408.607 288.295C409.073 288.295 409.415 288.156 409.631 287.88C409.847 287.607 409.955 287.218 409.955 286.713V276.026ZM410.707 274.366C410.409 274.366 410.152 274.265 409.936 274.062C409.724 273.858 409.618 273.614 409.618 273.329C409.618 273.044 409.724 272.799 409.936 272.596C410.152 272.393 410.409 272.291 410.707 272.291C411.006 272.291 411.261 272.393 411.473 272.596C411.689 272.799 411.797 273.044 411.797 273.329C411.797 273.614 411.689 273.858 411.473 274.062C411.261 274.265 411.006 274.366 410.707 274.366ZM417.219 286.22C416.588 286.22 416.015 286.101 415.501 285.863C414.987 285.621 414.578 285.273 414.275 284.819C413.973 284.361 413.822 283.808 413.822 283.159C413.822 282.588 413.934 282.126 414.159 281.771C414.384 281.413 414.684 281.132 415.06 280.929C415.436 280.725 415.851 280.574 416.305 280.475C416.763 280.371 417.224 280.289 417.686 280.228C418.291 280.15 418.782 280.092 419.158 280.053C419.539 280.01 419.815 279.939 419.988 279.839C420.165 279.74 420.254 279.567 420.254 279.32V279.269C420.254 278.629 420.079 278.132 419.729 277.777C419.383 277.423 418.858 277.245 418.153 277.245C417.423 277.245 416.85 277.405 416.435 277.725C416.02 278.045 415.728 278.387 415.559 278.75L414.107 278.231C414.366 277.626 414.712 277.155 415.144 276.817C415.581 276.476 416.056 276.238 416.571 276.104C417.09 275.966 417.6 275.897 418.101 275.897C418.421 275.897 418.789 275.936 419.204 276.013C419.623 276.087 420.027 276.24 420.416 276.474C420.809 276.707 421.136 277.06 421.395 277.531C421.655 278.002 421.784 278.633 421.784 279.424V285.986H420.254V284.638H420.176C420.072 284.854 419.9 285.085 419.657 285.331C419.415 285.578 419.093 285.787 418.691 285.96C418.289 286.133 417.799 286.22 417.219 286.22ZM417.453 284.845C418.058 284.845 418.568 284.726 418.983 284.488C419.402 284.251 419.718 283.944 419.93 283.568C420.146 283.192 420.254 282.796 420.254 282.381V280.98C420.189 281.058 420.046 281.13 419.826 281.194C419.61 281.255 419.359 281.309 419.074 281.356C418.793 281.4 418.518 281.439 418.25 281.473C417.987 281.503 417.773 281.529 417.608 281.551C417.211 281.603 416.839 281.687 416.493 281.804C416.152 281.916 415.875 282.087 415.663 282.316C415.456 282.541 415.352 282.848 415.352 283.237C415.352 283.769 415.549 284.171 415.942 284.443C416.34 284.711 416.843 284.845 417.453 284.845ZM432.365 276.026L428.682 285.986H427.126L423.443 276.026H425.103L427.852 283.963H427.956L430.705 276.026H432.365ZM437.013 286.22C436.382 286.22 435.809 286.101 435.294 285.863C434.78 285.621 434.371 285.273 434.069 284.819C433.766 284.361 433.615 283.808 433.615 283.159C433.615 282.588 433.727 282.126 433.952 281.771C434.177 281.413 434.477 281.132 434.853 280.929C435.229 280.725 435.644 280.574 436.098 280.475C436.557 280.371 437.017 280.289 437.48 280.228C438.085 280.15 438.575 280.092 438.951 280.053C439.332 280.01 439.609 279.939 439.781 279.839C439.959 279.74 440.047 279.567 440.047 279.32V279.269C440.047 278.629 439.872 278.132 439.522 277.777C439.176 277.423 438.651 277.245 437.946 277.245C437.216 277.245 436.643 277.405 436.228 277.725C435.813 278.045 435.521 278.387 435.353 278.75L433.9 278.231C434.16 277.626 434.505 277.155 434.938 276.817C435.374 276.476 435.85 276.238 436.364 276.104C436.883 275.966 437.393 275.897 437.895 275.897C438.214 275.897 438.582 275.936 438.997 276.013C439.416 276.087 439.82 276.24 440.209 276.474C440.603 276.707 440.929 277.06 441.189 277.531C441.448 278.002 441.578 278.633 441.578 279.424V285.986H440.047V284.638H439.97C439.866 284.854 439.693 285.085 439.451 285.331C439.209 285.578 438.887 285.787 438.485 285.96C438.083 286.133 437.592 286.22 437.013 286.22ZM437.246 284.845C437.851 284.845 438.361 284.726 438.776 284.488C439.196 284.251 439.511 283.944 439.723 283.568C439.939 283.192 440.047 282.796 440.047 282.381V280.98C439.982 281.058 439.84 281.13 439.619 281.194C439.403 281.255 439.152 281.309 438.867 281.356C438.586 281.4 438.312 281.439 438.044 281.473C437.78 281.503 437.566 281.529 437.402 281.551C437.004 281.603 436.632 281.687 436.286 281.804C435.945 281.916 435.668 282.087 435.456 282.316C435.249 282.541 435.145 282.848 435.145 283.237C435.145 283.769 435.342 284.171 435.735 284.443C436.133 284.711 436.637 284.845 437.246 284.845Z" fill="white"/>
</svg>
